<?xml  version="1.0" encoding="UTF-8"?>
<!DOCTYPE svg PUBLIC "-//W3C//DTD SVG 1.0//EN" "http://www.w3.org/TR/2001/REC-SVG-20010904/DTD/svg10.dtd" >
<svg xmlns="http://www.w3.org/2000/svg" >
<metadata>
<version>1.0</version>
<id><![CDATA[Univers LT W01 47 Light Cn]]></id>
<vendor>Monotype Imaging Inc.</vendor>
<credits>
<name>Fonts.com WebFonts</name>
<URL>http://webfonts.fonts.com</URL>
<role>Home of the Web fonts</role>
</credits>
<license>
<URL>http://webfonts.fonts.com/Legal</URL>
</license>
<copyright><![CDATA[Copyright © 2009 Linotype Corp., www.linotype.com. All rights reserved. This font software may not be reproduced, modified, disclosed or transferred without the express written approval of Linotype Corp. Univers is a trademark of Linotype Corp. registered in the U.S. Patent and Trademark Office and may be registered in certain other jurisdictions in the name of Linotype Corp. or its licensee Linotype GmbH. This typeface is original artwork of Adrian Frutiger. The design may be protected in certain jurisdictions.]]></copyright>
<trademark><![CDATA[Univers is a trademark of Linotype Corp. registered in the U.S. Patent and Trademark Office and may be registered in certain other jurisdictions in the name of Linotype Corp. or its licensee Linotype GmbH.]]></trademark>
<licensee>
<name></name>
</licensee>
</metadata>
<defs >
<font horiz-adv-x="430" id="1cd9ef2f-b358-4d39-8628-6481d9e1c8ce">
<font-face font-family="" panose-1="2 11 3 6 2 2 2 4 2 4" ascent="953" descent="-218" units-per-em="1000" alphabetic="0">
</font-face>
<missing-glyph horiz-adv-x="0" />

<glyph unicode="&#xA;" />
<glyph unicode="&#xD;" horiz-adv-x="0" />
<glyph unicode=" " horiz-adv-x="222" />
<glyph unicode="!" horiz-adv-x="333" d="M189 170H135L130 722H199L189 170ZM126 0V79H199V0H126Z"  />
<glyph unicode="&quot;" horiz-adv-x="309" d="M229 503H193L187 710H236L229 503ZM116 503H80L73 710H122L116 503Z"  />
<glyph unicode="#" horiz-adv-x="444" d="M333 449L300 261H386V218H292L251 0H204L244 218H146L106 0H58L98 218H12V261H106L139 449H53V492H147L188 710H235L195 492H293L334 710H382L341 492H428V449H333ZM187 449L154 261H252L285 449H187Z"  />
<glyph unicode="$" horiz-adv-x="444" d="M406 159Q406 -2 240 -11V-90H203V-12Q157 -10 126 4T75 44T47 105T38 185H100V175Q100 108 123 77T203 41V322Q170 341 142 358T92 397T58 448T46 520Q46 592 87 634T203 682V771H240V683Q321 680 362 642T403 520V499H341V509Q341 563 319 596T240 633V366L286 340Q316 323 338 307T376 270T398 223T406 159ZM203 632Q107 623 107 523Q107 481 129 451T203 388V632ZM343 145Q343 179 336 203T315 243T284 272T247 296L240 300V40Q343 47 343 145Z"  />
<glyph unicode="%" horiz-adv-x="778" d="M703 175Q703 -10 572 -10Q531 -10 506 5T466 45T447 102T441 169Q441 354 572 354Q703 354 703 175ZM264 -14H219L507 710H553L264 -14ZM336 531Q336 346 205 346Q164 346 139 361T99 401T80 458T74 525Q74 710 205 710Q336 710 336 531ZM649 179Q649 198 647 221T638 263T615 295T574 308Q545 308 529 293T506 255T497 207T495 160Q495 35 572 35Q613 35 631 69T649 179ZM282 535Q282 554 280 577T271 619T248 651T207 664Q178 664 162 649T139 611T130 563T128 516Q128 391 205 391Q246 391 264 425T282 535Z"  />
<glyph unicode="&amp;" horiz-adv-x="611" d="M516 0L462 72Q427 27 377 7T270 -13Q164 -13 112 37T59 194Q59 234 68 262T95 314T136 356T191 397Q171 421 155 440T127 481T109 526T102 583Q102 735 265 735Q344 735 378 698T412 584Q412 547 401 520T372 470T330 429T280 388L450 182Q463 233 469 288T476 396V405H536Q533 333 525 264T494 127L599 0H516ZM349 593Q349 637 326 660T259 683Q213 683 188 658T163 586Q163 561 169 541T187 502T213 466T242 431Q264 446 284 462T318 498T340 541T349 593ZM229 354Q206 339 187 323T154 288T132 245T124 193Q124 44 272 44Q376 44 422 122L229 354Z"  />
<glyph unicode="&apos;" horiz-adv-x="198" d="M117 503H81L75 710H124L117 503Z"  />
<glyph unicode="(" horiz-adv-x="222" d="M116 -133Q100 -81 85 -28T58 78T39 185T32 294Q32 410 58 522T120 743H165Q137 631 118 519T99 290Q99 186 117 77T165 -133H116Z"  />
<glyph unicode=")" horiz-adv-x="222" d="M186 293Q186 238 179 184T160 77T133 -29T102 -134H53Q83 -36 101 75T119 288Q119 404 102 518T53 742H98Q134 632 160 521T186 293Z"  />
<glyph unicode="*" horiz-adv-x="444" d="M244 551L323 436L277 409L220 536L161 409L113 438L194 552L56 538V591L191 580L115 692L160 720L220 594L278 719L324 692L244 581L381 591V537L244 551Z"  />
<glyph unicode="+" horiz-adv-x="444" d="M247 229V30H198V229H-2V278H198V478H247V278H446V229H247Z"  />
<glyph unicode="&#x2c;" horiz-adv-x="222" d="M98 -104H47L87 79H159L98 -104Z"  />
<glyph unicode="-" horiz-adv-x="278" d="M38 238V295H240V238H38Z"  />
<glyph unicode="." horiz-adv-x="222" d="M74 0V79H149V0H74Z"  />
<glyph unicode="/" horiz-adv-x="333" d="M66 -12H13L266 729H320L66 -12Z"  />
<glyph unicode="0" horiz-adv-x="444" d="M397 230Q397 182 391 139T366 62T311 8T215 -12Q159 -12 125 7T72 58T47 133T40 220V464Q40 511 46 555T71 633T126 689T221 710Q278 710 312 693T366 644T391 570T397 476V230ZM335 458Q335 492 334 527T322 591T287 638T217 657Q177 657 155 639T121 592T106 529T103 465V255Q103 222 104 185T115 116T150 63T221 42Q260 42 282 59T317 104T332 165T335 228V458Z"  />
<glyph unicode="1" horiz-adv-x="444" d="M211 0V617Q183 589 153 565T89 519V588Q103 597 120 610T155 637T188 667T215 697H273V0H211Z"  />
<glyph unicode="2" horiz-adv-x="444" d="M39 0V56L284 429Q302 456 314 489T327 556Q327 654 217 654Q163 654 133 623T103 534V527H40V539Q40 618 87 663T215 708Q251 708 283 700T339 674T378 628T393 561Q393 512 374 468T328 383L108 54H394V0H39Z"  />
<glyph unicode="3" horiz-adv-x="444" d="M392 190Q392 -11 216 -11Q128 -11 81 31T34 151V171H98V158Q98 103 129 73T217 43Q330 43 330 185Q330 222 324 250T303 297T263 325T198 335Q191 335 185 335T171 333V388Q179 388 183 388T190 387Q262 387 294 423T327 532Q327 591 298 623T215 655Q184 655 163 646T130 619T112 579T106 527H44V540Q44 621 88 664T213 708Q387 708 387 533Q387 384 278 361Q338 353 365 313T392 190Z"  />
<glyph unicode="4" horiz-adv-x="444" d="M336 174V0H277V174H27V244L242 697H336V228H419V174H336ZM277 635L81 228H277V635Z"  />
<glyph unicode="5" horiz-adv-x="444" d="M409 222Q409 174 401 132T373 58T316 8T223 -11Q146 -11 100 29T53 153V167H117V159Q117 43 228 43Q259 43 281 53T317 85T337 142T343 227Q343 259 340 288T325 341T291 378T229 392Q187 392 156 372T118 319H58L66 697H381V642H126L119 394Q143 419 172 430T240 442Q295 442 328 425T379 379T403 309T409 222Z"  />
<glyph unicode="6" horiz-adv-x="444" d="M399 221Q399 172 393 130T367 57T313 9T221 -9Q166 -9 132 8T78 53T51 119T43 197V455Q43 504 48 549T71 630T126 686T224 707Q315 707 353 665T391 540H328Q328 564 324 585T308 623T277 648T227 658Q177 658 152 634T116 573T105 494T104 416V362Q129 402 161 420T242 438Q293 438 324 420T371 372T393 303T399 221ZM334 221Q334 251 331 280T317 332T285 370T226 385Q173 385 140 348Q114 318 110 280T105 203Q105 173 110 145T128 93T164 56T223 42Q262 42 284 58T318 101T331 159T334 221Z"  />
<glyph unicode="7" horiz-adv-x="444" d="M169 0H103L324 642H32V697H385V638L169 0Z"  />
<glyph unicode="8" horiz-adv-x="444" d="M403 192Q403 143 394 105T363 41T306 1T220 -13Q121 -13 80 39T39 186Q39 270 63 311T145 365Q114 374 95 389T66 426T51 473T47 530Q47 708 223 708Q312 708 354 667T397 538Q397 498 392 469T374 419T341 386T293 366Q328 359 349 343T383 303T399 252T403 192ZM332 523Q332 553 328 578T311 621T277 649T221 659Q188 659 167 649T132 620T114 576T109 521Q109 387 221 387Q253 387 274 397T308 426T326 470T332 523ZM339 194Q339 225 334 251T316 296T281 327T223 338Q185 338 162 326T125 294T107 245T102 184Q102 154 107 128T126 81T163 49T220 37Q257 37 280 49T317 83T334 133T339 194Z"  />
<glyph unicode="9" horiz-adv-x="444" d="M395 252Q395 198 391 150T369 66T315 8T213 -13Q126 -13 87 30T47 155H111V147Q111 96 135 69T214 42Q248 42 275 54T313 88Q332 126 332 281Q332 291 332 305T331 338Q316 321 303 310T276 291T245 280T202 276Q155 276 124 291T73 335T47 405T39 500Q39 545 47 583T76 649T131 694T217 710Q272 710 306 696T360 656T387 595T395 520V252ZM330 519Q330 549 325 574T308 618T273 646T217 656Q179 656 157 642T123 605T108 552T104 491Q104 406 129 368T210 329Q248 329 277 347T318 394Q325 412 327 439T330 519Z"  />
<glyph unicode=":" horiz-adv-x="222" d="M74 426V505H148V426H74ZM74 0V79H148V0H74Z"  />
<glyph unicode=";" horiz-adv-x="222" d="M79 426V505H153V426H79ZM98 -104H45L85 79H158L98 -104Z"  />
<glyph unicode="&lt;" horiz-adv-x="444" d="M11 226V274L429 454V406L66 250L429 96V48L11 226Z"  />
<glyph unicode="=" horiz-adv-x="444" d="M20 316V365H423V316H20ZM20 148V197H423V148H20Z"  />
<glyph unicode="&gt;" horiz-adv-x="444" d="M15 48V96L378 250L15 406V454L433 274V226L15 48Z"  />
<glyph unicode="?" horiz-adv-x="389" d="M319 569Q319 545 318 526T312 490T301 457T281 420Q274 408 265 395T246 367T229 339T216 313Q211 300 209 270T206 207V170H149V211Q149 237 150 263T155 308Q159 334 171 360T213 424Q228 443 236 460T248 494T254 530T255 574Q255 596 253 616T244 651T221 674T179 683Q102 683 102 586Q102 584 102 580T103 569H40Q39 578 39 582T39 591Q39 734 180 734Q224 734 251 723T294 691T314 639T319 569ZM142 0V79H215V0H142Z"  />
<glyph unicode="@" horiz-adv-x="889" d="M540 393Q540 427 525 450T469 474Q435 474 415 457T381 413T362 357T350 303Q345 277 341 252T336 205Q336 172 348 151T396 130Q432 130 455 147T492 192T515 252T530 318Q534 339 537 357T540 393ZM526 174Q513 151 496 135T459 107T421 91T386 85Q325 85 299 120T272 207Q272 260 284 311Q293 354 306 392T341 459T394 505T469 522Q499 522 524 505T563 465L574 516H637L573 222Q569 206 569 190T575 162T593 142T627 134Q667 134 701 158T759 221T797 305T811 394Q811 466 784 521T709 614T599 671T467 691Q376 691 304 661T182 578T105 451T78 290Q78 203 104 134T179 17T296 -57T448 -83Q497 -83 540 -76T623 -55T701 -20T780 28L807 -8Q723 -68 637 -99T446 -131Q354 -131 277 -103T145 -20T58 112T27 290Q27 390 59 472T149 614T288 707T468 740Q546 740 617 717T742 650T829 541T862 393Q862 349 852 305T820 222T768 152T695 102Q678 94 656 90T615 86Q597 86 581 92T552 109T532 136T526 174Z"  />
<glyph unicode="A" horiz-adv-x="556" d="M475 0L417 190H134L77 0H13L241 722H317L542 0H475ZM276 652L153 244H400L276 652Z"  />
<glyph unicode="B" horiz-adv-x="500" d="M453 195Q453 91 404 46T244 0H66V722H257Q355 722 397 680T439 540Q439 504 434 478T417 432T385 399T333 376Q366 367 389 354T426 320T446 269T453 195ZM373 542Q373 607 350 637T276 668H130V398H248Q312 398 342 433T373 542ZM387 197Q387 273 355 308T256 344H130V54H242Q273 54 300 59T346 81T376 124T387 197Z"  />
<glyph unicode="C" horiz-adv-x="500" d="M459 203Q459 155 448 115T411 47T348 2T258 -14Q182 -14 141 15T81 92T59 197T56 314Q56 379 57 430T62 523Q77 736 267 736Q355 736 404 690T453 541V527H387Q387 532 387 536T388 543Q388 682 267 682Q214 682 185 657T142 595T126 513T123 429V232Q123 143 159 92T261 41Q300 41 325 56T365 95T385 148T391 207H459V203H459Z"  />
<glyph unicode="D" horiz-adv-x="556" d="M493 365Q493 296 489 231T462 114T388 31T247 0H75V722H276Q339 722 381 702T447 644T482 553T493 435V365ZM426 397Q426 480 417 533T386 616T325 657T228 668H139V54H220Q295 54 337 72T398 130T422 236T426 397Z"  />
<glyph unicode="E" horiz-adv-x="444" d="M75 0V722H402V668H139V398H390V344H139V54H409V0H75Z"  />
<glyph unicode="F" horiz-adv-x="389" d="M132 668V398H356V344H132V0H67V722H373V668H132Z"  />
<glyph unicode="G" horiz-adv-x="556" d="M420 537V548Q420 612 386 647T290 683Q246 683 215 670T164 626T135 549T126 433V333Q126 262 131 207T155 115T206 59T295 40Q363 40 415 63V325H268V377H478V18Q436 4 387 -5T294 -14Q211 -14 164 12T93 83T65 191T59 324V399Q59 463 64 524T91 632T160 708T289 737Q344 737 381 724T442 684T475 621T485 537H420Z"  />
<glyph unicode="H" horiz-adv-x="556" d="M420 0V344H136V0H72V722H136V398H420V722H484V0H420Z"  />
<glyph unicode="I" horiz-adv-x="222" d="M79 0V722H143V0H79Z"  />
<glyph unicode="J" horiz-adv-x="444" d="M370 199Q370 91 331 39T195 -13Q22 -13 22 186V204H85V184Q85 116 110 79T197 41Q237 41 259 57T291 98T304 153T306 212V722H370V199H370Z"  />
<glyph unicode="K" horiz-adv-x="500" d="M405 0L141 370V0H77V722H141V391L400 722H477L207 385L485 0H405Z"  />
<glyph unicode="L" horiz-adv-x="389" d="M67 0V722H131V54H370V0H67Z"  />
<glyph unicode="M" horiz-adv-x="778" d="M638 0V659L424 0H350L133 659V0H72V722H177L389 73L597 722H699V0H638Z"  />
<glyph unicode="N" horiz-adv-x="611" d="M435 0L139 650V0H76V722H174L472 72V722H535V0H435Z"  />
<glyph unicode="O" horiz-adv-x="556" d="M496 329Q496 260 491 198T463 89T396 14T273 -14Q168 -14 114 49T60 238V483Q60 537 72 584T110 665T178 720T277 740Q336 740 377 720T445 665T484 582T496 476V329ZM431 448Q431 494 426 536T405 612T358 665T277 685Q226 685 196 664T150 610T130 536T125 454V272Q125 153 158 97T277 40Q337 40 369 69T414 143T429 245T431 358V448Z"  />
<glyph unicode="P" horiz-adv-x="444" d="M422 536Q422 474 408 435T367 374T304 344T222 336H127V0H64V722H262Q301 722 331 714T381 684T411 627T422 536ZM355 536Q355 589 344 616T311 654T257 667T182 668H127V390H160Q207 390 243 391T304 406T342 449T355 536Z"  />
<glyph unicode="Q" horiz-adv-x="556" d="M407 0L393 -1Q369 -3 346 -4T298 -6Q265 -6 235 -2T178 13T130 44T93 97Q82 119 76 141T66 194T61 267T59 372Q59 423 60 459T63 522T69 569T80 610Q100 672 152 705T280 738Q334 738 378 720T448 667Q463 648 472 626T487 570T495 489T497 372Q497 312 495 262T484 171T461 102T418 54H545V0H407ZM433 386Q433 434 431 470T425 535T413 586T396 626Q380 654 351 669T281 684Q242 684 210 669T161 626Q137 588 131 515T124 353Q124 303 126 266T132 199T144 147T161 106Q176 78 207 62T276 46Q315 46 346 61T394 106Q405 124 412 146T424 201T431 278T433 386Z"  />
<glyph unicode="R" horiz-adv-x="500" d="M444 551Q444 510 438 480T419 430T383 396T329 376Q384 369 407 341T432 251L436 85L443 0H378Q376 14 375 34T372 68L370 100L367 234Q366 268 359 290T336 326T293 344T228 350H132V0H68V722H252Q299 722 335 716T395 692T431 640T444 551ZM378 553Q378 601 364 625T326 658T268 668T194 668H132V404H214Q254 404 284 408T336 427T367 472T378 553Z"  />
<glyph unicode="S" horiz-adv-x="500" d="M445 172Q445 -12 253 -12Q160 -12 107 32T54 170V200H120V186Q120 145 129 117T155 73T198 49T255 42Q284 42 307 48T346 68T370 107T379 170Q379 196 375 215T358 252T323 285T267 322L193 365Q163 382 140 400T99 440T73 492T64 559Q64 643 113 688T254 733Q297 733 332 724T391 694T429 640T443 559V536H378V546Q378 615 348 646T253 678Q129 678 129 565Q129 538 134 518T152 481T186 448T241 412L319 365Q358 342 382 323T421 283T440 236T445 172Z"  />
<glyph unicode="T" horiz-adv-x="444" d="M254 668V0H190V668H15V722H429V668H254Z"  />
<glyph unicode="U" horiz-adv-x="556" d="M487 260Q487 204 479 155T449 68T385 8T277 -14Q169 -14 118 45T67 211V722H131V212Q131 131 170 86T279 40Q324 40 352 57T396 102T417 167T423 241V722H487V260H487Z"  />
<glyph unicode="V" horiz-adv-x="500" d="M290 0H211L10 722H78L250 75L429 722H491L290 0Z"  />
<glyph unicode="W" horiz-adv-x="833" d="M644 0H560L414 642L264 0H184L10 722H78L225 85L373 722H460L605 89L760 722H823L644 0Z"  />
<glyph unicode="X" horiz-adv-x="500" d="M416 0L245 330L78 0H10L204 373L25 722H95L248 421L406 722H474L288 373L491 0H416Z"  />
<glyph unicode="Y" horiz-adv-x="500" d="M282 290V0H218V290L14 722H86L251 363L424 722H488L282 290Z"  />
<glyph unicode="Z" horiz-adv-x="444" d="M23 0V58L355 668H42V722H416V656L89 54H419V0H23Z"  />
<glyph unicode="[" horiz-adv-x="222" d="M49 -132V743H188V699H104V-88H188V-132H49Z"  />
<glyph unicode="\" horiz-adv-x="222" d="M211 -12L-43 729H11L264 -12H211Z"  />
<glyph unicode="]" horiz-adv-x="222" d="M25 -132V-88H109V699H25V743H164V-132H25Z"  />
<glyph unicode="^" horiz-adv-x="444" d="M362 297L221 655L82 297H31L198 710H246L412 297H362Z"  />
<glyph unicode="_" horiz-adv-x="500" d="M0 -125V-75H500V-125H0Z"  />
<glyph unicode="`" horiz-adv-x="278" d="M152 558L14 697H92L203 558H152Z"  />
<glyph unicode="a" horiz-adv-x="444" d="M326 0L325 68Q271 -7 180 -7Q114 -7 77 33T39 142Q39 266 156 292Q177 297 192 299T225 303T263 306T320 307V369Q320 468 220 468Q172 468 146 446T120 384V382H55Q56 417 70 442T106 484T159 508T224 516Q291 516 334 487Q352 475 361 460T375 426T380 389T381 351V108L383 44L386 0H326ZM322 219Q322 224 322 226T322 232T322 241T321 260Q314 261 310 261T301 261Q250 261 209 254T145 232Q125 221 114 198T103 145Q103 96 127 68T194 40Q220 40 246 53T290 88Q309 110 315 138T322 219Z"  />
<glyph unicode="b" horiz-adv-x="444" d="M399 250Q399 208 394 162T373 78T325 15T239 -10Q196 -10 165 8T110 65L109 0H52L54 49L56 97V722H116V446Q140 482 170 498T243 514Q297 514 328 494T374 438T394 354T399 250ZM335 257Q335 314 331 353T315 417T283 452T230 463Q195 463 173 447T137 403T119 334T114 246Q114 219 116 183T130 115T163 60T224 38Q258 38 279 52T313 94T330 162T335 257Z"  />
<glyph unicode="c" horiz-adv-x="389" d="M350 147Q350 111 343 81T318 30T273 -2T206 -14Q160 -14 129 1T78 44T51 108T42 190V276Q42 323 46 365T68 440T118 492T208 512Q287 512 318 472T350 358H290Q290 380 287 399T274 433T248 456T206 465Q171 465 152 451T122 408T109 339T106 244Q106 197 108 159T121 93T150 51T205 36Q231 36 247 45T273 69T286 105T290 147H350H350Z"  />
<glyph unicode="d" horiz-adv-x="444" d="M329 0L327 67Q280 -9 197 -9Q143 -9 112 15T66 77T46 164T41 260Q41 302 45 346T65 427T112 488T197 512Q236 512 265 497T321 446V722H383V155L385 42L387 0H329ZM325 269Q325 305 321 339T304 401T268 445T208 462Q166 462 145 441T114 387T104 319T103 253Q103 214 105 176T118 107T150 58T209 39Q253 39 276 60T311 114T323 189T325 269Z"  />
<glyph unicode="e" horiz-adv-x="444" d="M397 153Q397 79 356 34T227 -12Q165 -12 129 9T75 67T51 153T46 260Q46 312 53 358T79 439T134 494T227 515Q281 515 314 498T366 452T390 383T397 298V242H111V209Q111 178 114 148T130 93T165 53T227 37Q284 37 309 70T335 153H397ZM336 288Q336 318 334 350T321 408T288 451T224 468Q190 468 168 456T134 423T116 374T111 315V288H336Z"  />
<glyph unicode="f" horiz-adv-x="278" d="M263 674Q258 674 253 674T242 675Q217 675 201 670T176 654T164 626T160 585V505H262V457H160V0H100V457H19V505H100V596Q100 727 233 727Q242 727 248 727T263 725V674H263Z"  />
<glyph unicode="g" horiz-adv-x="444" d="M381 407V-24Q381 -110 343 -155T211 -200Q178 -200 150 -192T100 -168T68 -127T56 -70V-56H117V-63Q117 -106 143 -130T212 -154Q248 -154 269 -145T301 -117T315 -74T319 -18Q319 1 319 10T320 22T320 25Q320 25 320 26Q320 35 320 47T318 67Q302 38 271 22T199 5Q154 5 124 21T75 64T50 127T42 202V302Q42 343 49 381T74 449T122 496T198 514Q287 514 324 441L326 505H384L381 407ZM323 283Q323 315 319 347T302 406T267 448T210 465Q167 465 145 442T114 386T104 315T103 248Q103 219 104 185T115 122T146 72T208 52Q253 52 276 76T310 136T322 212T323 283Z"  />
<glyph unicode="h" horiz-adv-x="444" d="M322 0V313Q322 337 321 363T311 411T285 447T233 461Q179 461 150 418T120 297V0H60V722H120V443Q140 473 172 493T243 513Q283 513 309 500T352 463T374 408T381 341V0H322Z"  />
<glyph unicode="i" horiz-adv-x="222" d="M75 646V722H147V646H75ZM81 0V505H140V0H81Z"  />
<glyph unicode="j" horiz-adv-x="222" d="M76 646V722H150V646H76ZM145 -66Q145 -98 141 -122T125 -163T91 -188T34 -196Q17 -196 2 -193V-141Q7 -142 12 -142T23 -142Q63 -142 74 -124T86 -70V505H145V-66Z"  />
<glyph unicode="k" horiz-adv-x="389" d="M307 0L123 275V0H64V722H123V282L299 505H369L190 280L381 0H307Z"  />
<glyph unicode="l" horiz-adv-x="222" d="M81 0V722H140V0H81Z"  />
<glyph unicode="m" horiz-adv-x="667" d="M545 0V361Q545 461 469 461Q423 461 395 423T366 325V0H304V354Q304 374 302 393T291 428T268 452T226 461Q199 461 180 450T149 422T131 382T125 337V0H63V505H117V436Q137 471 166 492T237 513Q282 513 312 494T354 436Q376 476 405 494T478 512Q514 512 539 500T579 467T601 419T608 361V0H545Z"  />
<glyph unicode="n" horiz-adv-x="444" d="M325 0V347Q325 369 321 389T306 425T279 450T236 460Q181 460 152 415T122 287V0H63V505H118V435Q138 472 171 491T246 511Q286 511 312 499T355 464T378 413T385 350V0H325Z"  />
<glyph unicode="o" horiz-adv-x="444" d="M397 203Q397 153 389 113T361 45T306 2T218 -13Q167 -13 134 2T82 45T55 111T47 196V296Q47 344 55 384T83 454T138 499T227 515Q281 515 314 500T366 456T391 389T397 303V203ZM336 296Q336 328 333 359T318 414T285 452T226 467Q186 467 163 451T127 409T112 350T108 282V219Q108 187 110 154T124 95T159 51T226 34Q267 34 289 52T322 99T334 161T336 226V296Z"  />
<glyph unicode="p" horiz-adv-x="444" d="M402 252Q402 208 398 162T378 77T330 13T240 -12Q196 -12 169 5T119 58V-192H59V505H117V439Q139 474 171 493T246 513Q304 513 335 490T382 429T399 345T402 252ZM338 249Q338 291 337 330T327 398T296 446T236 464Q197 464 174 444T138 392T121 319T117 237Q117 207 120 172T136 107T171 57T235 37Q274 37 295 56T325 107T336 175T338 249Z"  />
<glyph unicode="q" horiz-adv-x="444" d="M386 505Q385 493 385 486T384 466T383 426T382 350V-192H320V59Q273 -7 197 -7Q139 -7 108 18T61 83T44 171T41 267Q41 309 45 353T66 433T112 491T196 514Q239 514 271 494T326 438V505H386ZM324 272Q324 302 321 335T306 398T271 446T209 465Q168 465 147 444T115 389T104 317T102 244Q102 210 103 175T114 110T145 62T206 43Q253 43 277 66T311 124T323 199T324 272Z"  />
<glyph unicode="r" horiz-adv-x="278" d="M266 454Q263 454 259 454T250 455Q193 455 160 421T127 325V0H67V422L65 505H122V432Q144 470 178 491T255 512H266V454H266Z"  />
<glyph unicode="s" horiz-adv-x="389" d="M345 132Q345 60 306 24T192 -13Q44 -13 44 135V148H105Q106 85 126 59T197 33Q239 33 261 55T284 120Q284 155 264 179T201 225L158 247Q115 269 86 302T57 387Q57 447 94 480T200 513Q242 513 269 503T312 474T334 428T341 367H282V373Q282 465 197 465Q161 465 139 446T117 389Q117 355 135 337T181 304Q189 299 203 292T230 278Q245 270 261 261Q303 238 324 209T345 132Z"  />
<glyph unicode="t" horiz-adv-x="278" d="M259 0Q245 -2 233 -2T206 -3Q98 -3 98 83V457H16V505H98V609L157 635V505H259V457H157V118Q157 80 168 65T219 49Q227 49 239 50T259 53V0H259Z"  />
<glyph unicode="u" horiz-adv-x="444" d="M322 0V56Q296 21 266 6T196 -10Q160 -10 135 2T94 35T71 86T64 150V505H124V144Q124 95 146 68T211 41Q260 41 289 76T318 171V505H379V71Q379 53 380 35T381 0H322Z"  />
<glyph unicode="v" horiz-adv-x="389" d="M229 0H160L10 505H75L197 74L320 505H378L229 0Z"  />
<glyph unicode="w" horiz-adv-x="667" d="M518 0H443L331 429L224 0H149L10 505H74L188 69L296 505H370L483 69L597 505H657L518 0Z"  />
<glyph unicode="x" horiz-adv-x="389" d="M305 0L194 219L78 0H11L159 269L34 505H106L198 315L298 505H364L232 272L378 0H305Z"  />
<glyph unicode="y" horiz-adv-x="389" d="M169 -192H110L169 -2L10 505H74L198 91L318 505H378L169 -192Z"  />
<glyph unicode="z" horiz-adv-x="333" d="M29 0V49L241 457H41V505H299V448L96 48H304V0H29Z"  />
<glyph unicode="{" horiz-adv-x="351" d="M336 -134Q304 -132 272 -125T214 -98Q191 -81 179 -59T162 -13T156 37T155 89V137Q155 153 155 169T150 201T139 230T117 254Q82 279 15 287V319Q34 319 55 323T94 338T127 362T148 397Q155 418 155 469V511Q155 537 155 563T161 614T178 661T212 702Q237 722 270 730T336 740V708Q309 706 284 699T238 672Q223 658 216 642T205 607T202 570T201 532V504Q201 468 199 435T185 374T148 328T78 303Q122 296 146 279T183 236T198 177T201 106V65Q201 41 203 13T216 -36Q236 -74 267 -87T336 -102V-134H336Z"  />
<glyph unicode="|" horiz-adv-x="222" d="M87 -214V786H135V-214H87Z"  />
<glyph unicode="}" horiz-adv-x="351" d="M336 287Q268 279 234 254Q220 244 213 231T201 202T197 170T196 137V89Q196 63 195 38T189 -12T172 -59T137 -98Q111 -118 79 -125T15 -134V-102Q53 -100 84 -87T135 -36Q146 -15 148 13T150 65V106Q150 144 153 177T168 236T204 279T273 303Q228 309 203 328T166 374T152 434T150 504V532Q150 551 150 570T146 607T136 641T113 672Q93 692 68 699T15 708V740Q47 738 80 730T139 702Q161 684 172 662T189 614T195 563T196 511V469Q196 418 203 397Q209 377 223 363T256 338T296 324T336 319V287H336Z"  />
<glyph unicode="~" horiz-adv-x="444" d="M431 307Q428 283 421 261T403 222T376 194T337 183Q322 183 302 189T260 203T219 220T184 235Q167 243 148 250T111 257Q82 257 70 232T53 174H15Q18 198 24 220T42 261T70 289T109 300Q130 300 150 293T190 278L272 244Q287 238 303 232T336 226Q351 226 360 232T376 250T387 276T394 307H431H431Z"  />
<glyph unicode="&#xA0;" horiz-adv-x="222" />
<glyph unicode="&#xA1;" horiz-adv-x="333" d="M140 346H194L199 -206H130L140 346ZM203 516V437H130V516H203Z"  />
<glyph unicode="&#xA2;" horiz-adv-x="444" d="M293 656H330L301 527Q346 507 369 467T392 368V360H334V366Q334 402 324 426T287 468L192 58Q209 53 228 53Q253 53 273 59T308 82T330 127T338 201H396V195Q396 104 355 50T229 -5Q218 -5 203 -4T175 0L140 -151H100L140 10Q118 23 102 39T74 81T58 148T52 253Q52 291 53 318T56 365T62 402T72 435Q90 485 132 513T229 541Q248 541 266 538L293 656ZM253 481Q245 483 240 483T228 484Q200 484 179 475T143 443T122 380T114 276Q114 241 115 209T120 150T132 103T156 73L253 481Z"  />
<glyph unicode="&#xA3;" horiz-adv-x="444" d="M348 529Q348 533 348 536T349 541Q349 655 256 655Q214 655 194 634T165 582T156 516T156 450V398H303V344H156V54H398V0H19V54H93V344H12V398H93V507Q93 549 100 585T125 649T175 691T259 706Q409 706 409 556V529H348Z"  />
<glyph unicode="&#xA4;" horiz-adv-x="444" d="M58 219Q36 244 24 278T12 350Q12 421 57 480L-6 544L28 578L91 515Q121 536 152 548T222 560Q259 560 290 549T353 515L416 578L450 544L387 480Q408 451 420 419T433 349Q433 314 422 283T387 219L450 155L416 121L352 185Q323 165 291 152T222 139Q187 139 154 150T92 185L28 121L-6 156L58 219ZM222 508Q189 508 161 496T111 462T77 411T64 349Q64 316 76 288T110 238T160 204T222 191Q255 191 284 203T334 237T368 287T381 349Q381 382 369 411T335 461T284 495T222 508Z"  />
<glyph unicode="&#xA5;" horiz-adv-x="444" d="M43 164V210H189V265L181 280H43V327H160L-15 697H57L222 338L395 697H460L283 327H403V280H261L254 265V210H403V164H254V0H189V164H43Z"  />
<glyph unicode="&#xA6;" horiz-adv-x="222" d="M87 411V661H135V411H87ZM87 -89V161H135V-89H87Z"  />
<glyph unicode="&#xA7;" horiz-adv-x="444" d="M378 121Q378 92 366 67T332 23Q306 1 274 -6T208 -14Q176 -14 141 -10T76 6V63Q102 52 139 45T205 37Q224 37 243 41T277 56T301 81T311 118Q311 145 293 165T248 203T188 235T129 268T83 308T65 360Q65 383 76 401T103 434T140 459T177 480L166 487Q148 498 132 509T104 535T84 567T77 608Q77 642 91 665T127 702T178 722T235 728Q263 728 290 723T345 713V657Q319 665 290 670T233 676Q218 676 202 673T172 661T149 640T140 609Q140 585 157 567T201 534T257 505T314 475T357 436T375 383Q375 361 365 343T339 309T305 280T270 256Q292 246 311 234T346 205T369 168T378 121ZM311 375Q311 393 302 405T279 427T250 443T221 456Q205 447 190 437T161 416Q148 405 138 394T128 365Q128 350 139 337T165 313T197 294T226 279Q237 286 251 297T279 320T302 347T311 375Z"  />
<glyph unicode="&#xA8;" horiz-adv-x="278" d="M28 672H92V571H28V672ZM186 672H250V571H186V672Z"  />
<glyph unicode="&#xA9;" horiz-adv-x="800" d="M400 740Q478 740 547 711T667 630T748 509T778 362Q778 284 748 216T667 96T547 15T400 -15Q322 -15 253 14T133 95T52 215T22 362Q22 440 51 509T132 629T253 710T400 740ZM400 693Q331 693 271 667T166 596T95 491T69 363Q69 294 95 234T166 129T271 58T400 32Q468 32 528 58T634 129T705 234T731 362Q731 431 705 491T634 596T529 667T400 693ZM582 285Q578 254 563 229T526 185T474 156T411 145Q367 145 330 161T265 207T222 277T206 365Q206 413 220 453T261 522T324 568T403 585Q438 585 469 574T523 543T561 496T579 437H526Q518 483 486 509T406 536Q376 536 351 524T307 489T278 436T268 368Q268 330 278 298T308 243T354 207T413 194Q457 194 488 218T529 285H582Z"  />
<glyph unicode="&#xAA;" horiz-adv-x="289" d="M120 424Q78 424 54 449T30 516Q30 565 62 589Q80 603 111 609T197 616V638Q197 669 185 682T144 695Q91 695 91 653V646H39Q40 663 42 672T49 692Q60 712 85 724T146 736Q184 736 211 721Q228 712 236 697Q242 686 244 673T246 633V488Q246 474 246 462T247 428H199V455Q194 450 190 447T183 442Q171 434 154 429T120 424ZM127 464Q141 464 155 471T179 489Q190 501 193 515T197 559V577H194Q131 577 102 561Q92 556 87 544T81 518Q81 493 93 479T127 464Z"  />
<glyph unicode="&#xAB;" horiz-adv-x="389" d="M284 59L196 253L284 447H339L259 253L339 59H284ZM134 59L47 253L137 447H190L111 253L190 59H134Z"  />
<glyph unicode="&#xAC;" horiz-adv-x="444" d="M361 133V316H20V365H406V133H361Z"  />
<glyph unicode="&#xAD;" horiz-adv-x="278" d="M38 238V295H240V238H38Z"  />
<glyph unicode="&#xAE;" horiz-adv-x="400" d="M384 539Q384 501 370 468T330 409T272 370T201 355Q163 355 130 369T72 409T33 467T18 539Q18 576 32 609T71 668T129 707T201 722Q239 722 272 708T330 669T369 611T384 539ZM358 539Q358 572 346 600T312 650T263 684T201 697Q168 697 140 685T90 651T56 600T43 539Q43 506 55 478T89 427T139 393T201 380Q234 380 262 392T312 427T345 477T358 539ZM256 446Q250 459 251 472T249 497T235 515T193 522H160V446H131V633H212Q225 633 238 631T261 623T277 607T283 579Q283 545 249 534Q266 526 272 516T279 493T280 469T286 446H256ZM255 579Q255 601 242 605T212 610H160V546H201Q209 546 218 547T236 551T249 561T255 579Z"  />
<glyph unicode="&#xAF;" horiz-adv-x="278" d="M269 648V600H9V648H269Z"  />
<glyph unicode="&#xB0;" horiz-adv-x="400" d="M346 564Q346 534 335 507T304 461T257 430T200 418Q170 418 144 429T97 460T66 507T54 564Q54 594 65 621T96 667T143 698T200 710Q230 710 257 699T303 668T334 621T346 564ZM303 564Q303 585 295 604T273 637T240 659T200 667Q179 667 161 659T128 637T105 604T97 564Q97 543 105 524T127 491T160 469T200 461Q221 461 240 469T273 491T295 524T303 564Z"  />
<glyph unicode="&#xB1;" horiz-adv-x="444" d="M245 264V83H198V264H14V307H198V488H245V307H429V264H245ZM14 -7V37H429V-7H14Z"  />
<glyph unicode="&#xB2;" horiz-adv-x="293" d="M30 318L178 537Q191 557 197 573T203 608Q203 657 145 657Q82 657 82 593V583H31Q30 587 30 590T30 597Q30 648 60 675T147 702Q198 702 227 678T256 610Q256 584 247 559T216 503L91 323H256V277H30V318Z"  />
<glyph unicode="&#xB3;" horiz-adv-x="293" d="M142 271Q117 271 96 277T60 296T36 333T27 390H79V381Q79 315 144 315Q176 315 190 333T204 392Q204 441 187 456T131 472Q126 472 122 472T109 470V516H127Q165 516 183 532T202 591Q202 658 142 658Q111 658 98 641T84 586V583H33V597Q33 648 61 675T141 702Q252 702 252 594Q252 559 243 535T204 495Q234 481 245 459T256 395Q256 271 142 271Z"  />
<glyph unicode="&#xB4;" horiz-adv-x="278" d="M188 697H268L125 560H75L188 697Z"  />
<glyph unicode="&#xB5;" horiz-adv-x="444" d="M327 0V59Q311 42 299 30T272 9T240 -4T198 -8Q168 -8 150 -2T125 10V-192H63V505H125V158Q125 153 126 134T134 93T159 55T209 38Q239 38 260 50T294 80T313 117T319 149V505H381V71Q381 53 382 35T383 0H327Z"  />
<glyph unicode="&#xB6;" horiz-adv-x="564" d="M457 682V-171H409V682H339V-171H291V275Q279 275 268 276T244 280Q204 289 174 308T124 355T93 418T83 493Q83 572 125 632T245 712Q268 718 290 720T336 722H491V682H457Z"  />
<glyph unicode="&#xB7;" horiz-adv-x="222" d="M71 260V339H146V260H71Z"  />
<glyph unicode="&#xB8;" horiz-adv-x="278" d="M45 -158Q61 -163 76 -167T109 -172Q119 -172 130 -170T151 -162T167 -148T173 -126Q173 -106 158 -97T124 -87Q100 -87 86 -97L66 -82L126 0H164L123 -55L125 -57Q137 -52 155 -52Q184 -52 208 -71T233 -125Q233 -149 224 -165T198 -190T162 -203T119 -207Q96 -207 74 -202T30 -188L45 -158Z"  />
<glyph unicode="&#xB9;" horiz-adv-x="293" d="M133 629Q123 620 116 614T102 603T86 591T60 575V631Q80 643 103 662T139 697H184V277H133V629Z"  />
<glyph unicode="&#xBA;" horiz-adv-x="289" d="M142 422Q108 422 87 432T54 460T38 502T34 556V622Q34 673 60 704T146 736Q196 736 225 711T254 622V557Q254 527 249 502T232 459T197 432T142 422ZM145 462Q160 462 171 466T189 481T200 511T204 563V603Q204 645 195 670T147 695Q113 695 99 676T84 603V547Q84 505 97 484T145 462Z"  />
<glyph unicode="&#xBB;" horiz-adv-x="389" d="M248 59H194L273 252L194 447H250L337 252L248 59ZM101 59H45L125 252L45 447H101L189 252L101 59Z"  />
<glyph unicode="&#xBC;" horiz-adv-x="754" d="M133 629Q123 620 116 614T102 603T86 591T60 575V631Q80 643 103 662T139 697H184V277H133V629ZM561 722H616L180 -29H124L561 722ZM623 103H473V152L605 420H672V148H722V103H672V0H623V103ZM623 148V349L523 148H623Z"  />
<glyph unicode="&#xBD;" horiz-adv-x="754" d="M133 629Q123 620 116 614T102 603T86 591T60 575V631Q80 643 103 662T139 697H184V277H133V629ZM559 722H614L178 -29H122L559 722ZM493 41L641 260Q654 280 660 296T666 331Q666 380 608 380Q545 380 545 316V306H494Q493 310 493 313T493 320Q493 371 523 398T610 425Q661 425 690 401T719 333Q719 307 710 282T679 226L554 46H719V0H493V41Z"  />
<glyph unicode="&#xBE;" horiz-adv-x="754" d="M142 271Q117 271 96 277T60 296T36 333T27 390H79V381Q79 315 144 315Q176 315 190 333T204 392Q204 441 187 456T131 472Q126 472 122 472T109 470V516H127Q165 516 183 532T202 591Q202 658 142 658Q111 658 98 641T84 586V583H33V597Q33 648 61 675T141 702Q252 702 252 594Q252 559 243 535T204 495Q234 481 245 459T256 395Q256 271 142 271ZM584 722H639L203 -29H147L584 722ZM622 103H472V152L604 420H671V148H721V103H671V0H622V103ZM622 148V349L522 148H622Z"  />
<glyph unicode="&#xBF;" horiz-adv-x="389" d="M71 -53Q71 -29 72 -10T78 26T89 59T109 96Q116 108 125 121T144 149T161 177T174 203Q179 216 181 246T184 309V346H241V305Q241 279 240 253T235 208Q231 182 219 156T177 92Q162 72 154 56T142 22T136 -14T135 -58Q135 -80 136 -100T145 -135T168 -158T211 -167Q288 -167 288 -70Q288 -68 288 -64T287 -53H350Q351 -62 351 -66T351 -75Q351 -218 210 -218Q166 -218 139 -207T96 -175T76 -123T71 -53ZM248 516V437H175V516H248Z"  />
<glyph unicode="&#xC0;" horiz-adv-x="556" d="M475 0L417 190H134L77 0H13L241 722H317L542 0H475ZM276 652L153 244H400L276 652ZM292 777L149 914H229L342 777H292Z"  />
<glyph unicode="&#xC1;" horiz-adv-x="556" d="M475 0L417 190H134L77 0H13L241 722H317L542 0H475ZM276 652L153 244H400L276 652ZM327 914H407L264 777H214L327 914Z"  />
<glyph unicode="&#xC2;" horiz-adv-x="556" d="M475 0L417 190H134L77 0H13L241 722H317L542 0H475ZM276 652L153 244H400L276 652ZM196 775H132L245 914H312L425 775H361L278 877L196 775Z"  />
<glyph unicode="&#xC3;" horiz-adv-x="556" d="M475 0L417 190H134L77 0H13L241 722H317L542 0H475ZM276 652L153 244H400L276 652ZM122 812Q124 830 130 848T148 881Q159 895 174 904T210 914Q228 914 247 905T284 887Q303 878 320 869T352 860Q373 860 383 877T396 914H434Q433 897 428 879T411 846Q401 831 387 822T352 812Q333 812 314 821T276 839Q257 848 240 857T206 866Q186 866 174 848T160 812H122Z"  />
<glyph unicode="&#xC4;" horiz-adv-x="556" d="M475 0L417 190H134L77 0H13L241 722H317L542 0H475ZM276 652L153 244H400L276 652ZM168 889H232V788H168V889ZM326 889H390V788H326V889Z"  />
<glyph unicode="&#xC5;" horiz-adv-x="556" d="M475 0L417 190H134L77 0H13L241 722H317L542 0H475ZM276 652L153 244H400L276 652ZM279 953Q298 953 315 946T344 926T364 896T371 860Q371 841 364 824T345 794T315 774T279 766Q260 766 243 773T214 794T194 824T186 860Q186 879 193 896T213 925T243 945T279 953ZM279 918Q255 918 238 901T221 860Q221 837 238 819T279 801Q302 801 319 819T336 860Q336 883 319 900T279 918Z"  />
<glyph unicode="&#xC6;" horiz-adv-x="778" d="M13 0L344 722H731V668H445L471 398H719V344H476L501 54H742V0H441L425 190H166L79 0H13ZM191 244H420L382 674H380L191 244Z"  />
<glyph unicode="&#xC7;" horiz-adv-x="500" d="M389 527Q389 557 384 585T367 634T332 669T275 682Q218 682 187 659T141 594T124 492T121 361Q121 289 123 230T141 129T187 63T275 40Q306 40 328 53T363 88T383 141T390 207H458Q458 187 454 151T431 77T376 13T275 -14Q267 -14 265 -13L234 -55L236 -57Q248 -52 266 -52Q295 -52 319 -71T344 -125Q344 -149 335 -165T309 -190T273 -203T230 -207Q207 -207 185 -202T141 -188L156 -158Q172 -163 187 -167T220 -172Q230 -172 241 -170T262 -162T278 -148T284 -126Q284 -106 269 -97T235 -87Q211 -87 197 -97L177 -82L230 -11Q166 -2 131 32T80 116T60 230T57 361Q57 434 60 502T85 622T150 705T275 736Q341 736 377 713T430 656T450 587T453 527H389Z"  />
<glyph unicode="&#xC8;" horiz-adv-x="444" d="M75 0V722H402V668H139V398H390V344H139V54H409V0H75ZM237 777L94 914H174L287 777H237Z"  />
<glyph unicode="&#xC9;" horiz-adv-x="444" d="M75 0V722H402V668H139V398H390V344H139V54H409V0H75ZM271 914H351L208 777H158L271 914Z"  />
<glyph unicode="&#xCA;" horiz-adv-x="444" d="M75 0V722H402V668H139V398H390V344H139V54H409V0H75ZM146 775H82L195 914H262L375 775H311L228 877L146 775Z"  />
<glyph unicode="&#xCB;" horiz-adv-x="444" d="M75 0V722H402V668H139V398H390V344H139V54H409V0H75ZM131 889H195V788H131V889ZM289 889H353V788H289V889Z"  />
<glyph unicode="&#xCC;" horiz-adv-x="222" d="M79 0V722H143V0H79ZM127 777L-16 914H64L177 777H127Z"  />
<glyph unicode="&#xCD;" horiz-adv-x="222" d="M79 0V722H143V0H79ZM161 914H241L98 777H48L161 914Z"  />
<glyph unicode="&#xCE;" horiz-adv-x="222" d="M79 0V722H143V0H79ZM30 775H-34L79 914H146L259 775H195L112 877L30 775Z"  />
<glyph unicode="&#xCF;" horiz-adv-x="222" d="M79 0V722H143V0H79ZM1 889H65V788H1V889ZM159 889H223V788H159V889Z"  />
<glyph unicode="&#xD0;" horiz-adv-x="556" d="M75 344H14V398H75V722H266Q342 722 387 700T455 632T486 519T493 358Q493 268 484 201T448 89T372 22T240 0H75V344ZM139 398H291V344H139V54H217Q289 54 331 66T395 116T423 222T429 401Q429 479 422 530T393 612T331 655T223 668H139V398Z"  />
<glyph unicode="&#xD1;" horiz-adv-x="611" d="M435 0L139 650V0H76V722H174L472 72V722H535V0H435ZM150 812Q152 830 158 848T176 881Q187 895 202 904T238 914Q256 914 275 905T312 887Q331 878 348 869T380 860Q401 860 411 877T424 914H462Q461 897 456 879T439 846Q429 831 415 822T380 812Q361 812 342 821T304 839Q285 848 268 857T234 866Q214 866 202 848T188 812H150Z"  />
<glyph unicode="&#xD2;" horiz-adv-x="556" d="M496 329Q496 260 491 198T463 89T396 14T273 -14Q168 -14 114 49T60 238V483Q60 537 72 584T110 665T178 720T277 740Q336 740 377 720T445 665T484 582T496 476V329ZM431 448Q431 494 426 536T405 612T358 665T277 685Q226 685 196 664T150 610T130 536T125 454V272Q125 153 158 97T277 40Q337 40 369 69T414 143T429 245T431 358V448ZM293 777L150 914H230L343 777H293Z"  />
<glyph unicode="&#xD3;" horiz-adv-x="556" d="M496 329Q496 260 491 198T463 89T396 14T273 -14Q168 -14 114 49T60 238V483Q60 537 72 584T110 665T178 720T277 740Q336 740 377 720T445 665T484 582T496 476V329ZM431 448Q431 494 426 536T405 612T358 665T277 685Q226 685 196 664T150 610T130 536T125 454V272Q125 153 158 97T277 40Q337 40 369 69T414 143T429 245T431 358V448ZM327 914H407L264 777H214L327 914Z"  />
<glyph unicode="&#xD4;" horiz-adv-x="556" d="M496 329Q496 260 491 198T463 89T396 14T273 -14Q168 -14 114 49T60 238V483Q60 537 72 584T110 665T178 720T277 740Q336 740 377 720T445 665T484 582T496 476V329ZM431 448Q431 494 426 536T405 612T358 665T277 685Q226 685 196 664T150 610T130 536T125 454V272Q125 153 158 97T277 40Q337 40 369 69T414 143T429 245T431 358V448ZM196 775H132L245 914H312L425 775H361L278 877L196 775Z"  />
<glyph unicode="&#xD5;" horiz-adv-x="556" d="M496 329Q496 260 491 198T463 89T396 14T273 -14Q168 -14 114 49T60 238V483Q60 537 72 584T110 665T178 720T277 740Q336 740 377 720T445 665T484 582T496 476V329ZM431 448Q431 494 426 536T405 612T358 665T277 685Q226 685 196 664T150 610T130 536T125 454V272Q125 153 158 97T277 40Q337 40 369 69T414 143T429 245T431 358V448ZM122 812Q124 830 130 848T148 881Q159 895 174 904T210 914Q228 914 247 905T284 887Q303 878 320 869T352 860Q373 860 383 877T396 914H434Q433 897 428 879T411 846Q401 831 387 822T352 812Q333 812 314 821T276 839Q257 848 240 857T206 866Q186 866 174 848T160 812H122Z"  />
<glyph unicode="&#xD6;" horiz-adv-x="556" d="M496 329Q496 260 491 198T463 89T396 14T273 -14Q168 -14 114 49T60 238V483Q60 537 72 584T110 665T178 720T277 740Q336 740 377 720T445 665T484 582T496 476V329ZM431 448Q431 494 426 536T405 612T358 665T277 685Q226 685 196 664T150 610T130 536T125 454V272Q125 153 158 97T277 40Q337 40 369 69T414 143T429 245T431 358V448ZM168 889H232V788H168V889ZM326 889H390V788H326V889Z"  />
<glyph unicode="&#xD7;" horiz-adv-x="444" d="M57 51L20 88L185 253L20 418L57 455L222 290L387 455L424 418L259 253L424 88L387 51L222 216L57 51Z"  />
<glyph unicode="&#xD8;" horiz-adv-x="556" d="M81 -31L44 -13L98 82Q81 112 73 147T62 220T59 293T60 361Q60 396 60 437T64 520T81 601T117 670T180 718T278 736Q333 736 370 720T433 677L479 759L512 738L458 641Q474 611 482 575T493 502T496 429T496 361Q496 326 496 285T492 202T475 121T439 52T376 4T278 -14Q223 -14 186 2T123 45L81 -31ZM156 103Q172 73 201 57T278 40Q336 40 367 64T413 132T430 234T432 361Q432 422 431 475T418 570L156 103ZM400 619Q384 649 355 665T278 682Q219 682 188 658T143 590T126 488T124 361Q124 300 125 247T137 152L400 619Z"  />
<glyph unicode="&#xD9;" horiz-adv-x="556" d="M487 260Q487 204 479 155T449 68T385 8T277 -14Q169 -14 118 45T67 211V722H131V212Q131 131 170 86T279 40Q324 40 352 57T396 102T417 167T423 241V722H487V260H487ZM292 777L149 914H229L342 777H292Z"  />
<glyph unicode="&#xDA;" horiz-adv-x="556" d="M487 260Q487 204 479 155T449 68T385 8T277 -14Q169 -14 118 45T67 211V722H131V212Q131 131 170 86T279 40Q324 40 352 57T396 102T417 167T423 241V722H487V260H487ZM327 914H407L264 777H214L327 914Z"  />
<glyph unicode="&#xDB;" horiz-adv-x="556" d="M487 260Q487 204 479 155T449 68T385 8T277 -14Q169 -14 118 45T67 211V722H131V212Q131 131 170 86T279 40Q324 40 352 57T396 102T417 167T423 241V722H487V260H487ZM196 775H132L245 914H312L425 775H361L278 877L196 775Z"  />
<glyph unicode="&#xDC;" horiz-adv-x="556" d="M487 260Q487 204 479 155T449 68T385 8T277 -14Q169 -14 118 45T67 211V722H131V212Q131 131 170 86T279 40Q324 40 352 57T396 102T417 167T423 241V722H487V260H487ZM168 889H232V788H168V889ZM326 889H390V788H326V889Z"  />
<glyph unicode="&#xDD;" horiz-adv-x="500" d="M282 290V0H218V290L14 722H86L251 363L424 722H488L282 290ZM299 914H379L236 777H186L299 914Z"  />
<glyph unicode="&#xDE;" horiz-adv-x="444" d="M64 722H128V558H262Q284 558 312 554T364 533T404 481T421 383Q421 274 382 223T250 172H128V0H64V722ZM128 226H247Q272 226 292 233T327 256T349 301T357 371Q357 417 348 443T324 483T288 500T246 504H128V226Z"  />
<glyph unicode="&#xDF;" horiz-adv-x="500" d="M457 134Q457 61 416 26T304 -10Q238 -10 205 24T174 125H234Q235 82 253 60T316 38Q358 38 377 62T397 125Q397 151 385 172T353 213T312 251T270 288T239 327T226 371Q226 409 243 439T280 496T317 551T334 610Q334 629 325 644T302 668T271 683T237 688Q217 688 198 683T162 662T137 619T127 548V0H67V568Q67 592 73 621T99 675T153 718T244 736Q272 736 299 728T347 703T381 662T394 606Q394 571 377 541T340 485T303 434T286 385Q286 366 298 349T330 313T371 276T413 236T444 189T457 134Z"  />
<glyph unicode="&#xE0;" horiz-adv-x="444" d="M326 0L325 68Q271 -7 180 -7Q114 -7 77 33T39 142Q39 266 156 292Q177 297 192 299T225 303T263 306T320 307V369Q320 468 220 468Q172 468 146 446T120 384V382H55Q56 417 70 442T106 484T159 508T224 516Q291 516 334 487Q352 475 361 460T375 426T380 389T381 351V108L383 44L386 0H326ZM322 219Q322 224 322 226T322 232T322 241T321 260Q314 261 310 261T301 261Q250 261 209 254T145 232Q125 221 114 198T103 145Q103 96 127 68T194 40Q220 40 246 53T290 88Q309 110 315 138T322 219ZM236 558L98 697H176L287 558H236Z"  />
<glyph unicode="&#xE1;" horiz-adv-x="444" d="M326 0L325 68Q271 -7 180 -7Q114 -7 77 33T39 142Q39 266 156 292Q177 297 192 299T225 303T263 306T320 307V369Q320 468 220 468Q172 468 146 446T120 384V382H55Q56 417 70 442T106 484T159 508T224 516Q291 516 334 487Q352 475 361 460T375 426T380 389T381 351V108L383 44L386 0H326ZM322 219Q322 224 322 226T322 232T322 241T321 260Q314 261 310 261T301 261Q250 261 209 254T145 232Q125 221 114 198T103 145Q103 96 127 68T194 40Q220 40 246 53T290 88Q309 110 315 138T322 219ZM272 697H352L209 560H159L272 697Z"  />
<glyph unicode="&#xE2;" horiz-adv-x="444" d="M326 0L325 68Q271 -7 180 -7Q114 -7 77 33T39 142Q39 266 156 292Q177 297 192 299T225 303T263 306T320 307V369Q320 468 220 468Q172 468 146 446T120 384V382H55Q56 417 70 442T106 484T159 508T224 516Q291 516 334 487Q352 475 361 460T375 426T380 389T381 351V108L383 44L386 0H326ZM322 219Q322 224 322 226T322 232T322 241T321 260Q314 261 310 261T301 261Q250 261 209 254T145 232Q125 221 114 198T103 145Q103 96 127 68T194 40Q220 40 246 53T290 88Q309 110 315 138T322 219ZM140 558H76L189 697H256L369 558H305L222 660L140 558Z"  />
<glyph unicode="&#xE3;" horiz-adv-x="444" d="M326 0L325 68Q271 -7 180 -7Q114 -7 77 33T39 142Q39 266 156 292Q177 297 192 299T225 303T263 306T320 307V369Q320 468 220 468Q172 468 146 446T120 384V382H55Q56 417 70 442T106 484T159 508T224 516Q291 516 334 487Q352 475 361 460T375 426T380 389T381 351V108L383 44L386 0H326ZM322 219Q322 224 322 226T322 232T322 241T321 260Q314 261 310 261T301 261Q250 261 209 254T145 232Q125 221 114 198T103 145Q103 96 127 68T194 40Q220 40 246 53T290 88Q309 110 315 138T322 219ZM67 595Q69 613 75 631T93 664Q104 678 119 687T155 697Q173 697 192 688T229 670Q248 661 265 652T297 643Q318 643 328 660T341 697H379Q378 680 373 662T356 629Q346 614 332 605T297 595Q278 595 259 604T221 622Q202 631 185 640T151 649Q131 649 119 631T105 595H67Z"  />
<glyph unicode="&#xE4;" horiz-adv-x="444" d="M326 0L325 68Q271 -7 180 -7Q114 -7 77 33T39 142Q39 266 156 292Q177 297 192 299T225 303T263 306T320 307V369Q320 468 220 468Q172 468 146 446T120 384V382H55Q56 417 70 442T106 484T159 508T224 516Q291 516 334 487Q352 475 361 460T375 426T380 389T381 351V108L383 44L386 0H326ZM322 219Q322 224 322 226T322 232T322 241T321 260Q314 261 310 261T301 261Q250 261 209 254T145 232Q125 221 114 198T103 145Q103 96 127 68T194 40Q220 40 246 53T290 88Q309 110 315 138T322 219ZM111 672H175V571H111V672ZM269 672H333V571H269V672Z"  />
<glyph unicode="&#xE5;" horiz-adv-x="444" d="M326 0L325 68Q271 -7 180 -7Q114 -7 77 33T39 142Q39 266 156 292Q177 297 192 299T225 303T263 306T320 307V369Q320 468 220 468Q172 468 146 446T120 384V382H55Q56 417 70 442T106 484T159 508T224 516Q291 516 334 487Q352 475 361 460T375 426T380 389T381 351V108L383 44L386 0H326ZM322 219Q322 224 322 226T322 232T322 241T321 260Q314 261 310 261T301 261Q250 261 209 254T145 232Q125 221 114 198T103 145Q103 96 127 68T194 40Q220 40 246 53T290 88Q309 110 315 138T322 219ZM222 736Q241 736 258 729T287 709T307 679T314 643Q314 624 307 607T288 577T258 557T222 549Q203 549 186 556T157 577T137 607T129 643Q129 662 136 679T156 708T186 728T222 736ZM222 701Q198 701 181 684T164 643Q164 620 181 602T222 584Q245 584 262 602T279 643Q279 666 262 683T222 701Z"  />
<glyph unicode="&#xE6;" horiz-adv-x="722" d="M378 250V201Q378 175 382 146T399 93T434 54T492 38Q549 38 576 70T603 154H666Q663 108 650 77T615 27T561 -1T492 -10Q443 -10 403 12T350 80Q329 32 294 11T206 -10Q172 -10 142 -2T88 24T52 69T38 132Q38 175 50 204T83 251T132 279T191 293T256 297T322 298Q322 328 320 358T308 412T277 451T216 467Q174 467 146 446T117 380H53Q55 416 69 442T106 484T158 507T221 515Q242 515 263 511T303 497T337 473T360 438Q380 473 416 494T492 515Q558 515 593 493T645 433T663 349T666 250H378ZM102 136Q102 85 131 62T211 38Q251 38 274 60T308 114T322 184T322 250Q286 248 247 248T176 238T123 205T102 136ZM606 298Q606 336 602 367T585 421T551 455T492 467Q438 467 408 422T378 298H606Z"  />
<glyph unicode="&#xE7;" horiz-adv-x="389" d="M286 360Q288 408 269 437T197 467Q169 467 148 452T116 409Q110 391 106 346T102 250Q102 216 103 179T113 110T141 59T195 38Q225 38 242 47T269 71T282 106T287 149H347Q349 99 335 68T300 20T255 -3T213 -10L179 -55L181 -57Q193 -52 211 -52Q240 -52 264 -71T289 -125Q289 -149 280 -165T254 -190T218 -203T175 -207Q152 -207 130 -202T86 -188L101 -158Q117 -163 132 -167T165 -172Q175 -172 186 -170T207 -162T223 -148T229 -126Q229 -106 214 -97T180 -87Q156 -87 142 -97L122 -82L176 -8Q124 -2 96 22T55 83T40 162T38 250Q38 269 38 292T40 338T45 382T53 417Q73 471 113 493T205 515Q270 515 310 477T346 360H286Z"  />
<glyph unicode="&#xE8;" horiz-adv-x="444" d="M397 153Q397 79 356 34T227 -12Q165 -12 129 9T75 67T51 153T46 260Q46 312 53 358T79 439T134 494T227 515Q281 515 314 498T366 452T390 383T397 298V242H111V209Q111 178 114 148T130 93T165 53T227 37Q284 37 309 70T335 153H397ZM336 288Q336 318 334 350T321 408T288 451T224 468Q190 468 168 456T134 423T116 374T111 315V288H336ZM236 558L98 697H176L287 558H236Z"  />
<glyph unicode="&#xE9;" horiz-adv-x="444" d="M397 153Q397 79 356 34T227 -12Q165 -12 129 9T75 67T51 153T46 260Q46 312 53 358T79 439T134 494T227 515Q281 515 314 498T366 452T390 383T397 298V242H111V209Q111 178 114 148T130 93T165 53T227 37Q284 37 309 70T335 153H397ZM336 288Q336 318 334 350T321 408T288 451T224 468Q190 468 168 456T134 423T116 374T111 315V288H336ZM271 697H351L208 560H158L271 697Z"  />
<glyph unicode="&#xEA;" horiz-adv-x="444" d="M397 153Q397 79 356 34T227 -12Q165 -12 129 9T75 67T51 153T46 260Q46 312 53 358T79 439T134 494T227 515Q281 515 314 498T366 452T390 383T397 298V242H111V209Q111 178 114 148T130 93T165 53T227 37Q284 37 309 70T335 153H397ZM336 288Q336 318 334 350T321 408T288 451T224 468Q190 468 168 456T134 423T116 374T111 315V288H336ZM140 558H76L189 697H256L369 558H305L222 660L140 558Z"  />
<glyph unicode="&#xEB;" horiz-adv-x="444" d="M397 153Q397 79 356 34T227 -12Q165 -12 129 9T75 67T51 153T46 260Q46 312 53 358T79 439T134 494T227 515Q281 515 314 498T366 452T390 383T397 298V242H111V209Q111 178 114 148T130 93T165 53T227 37Q284 37 309 70T335 153H397ZM336 288Q336 318 334 350T321 408T288 451T224 468Q190 468 168 456T134 423T116 374T111 315V288H336ZM111 672H175V571H111V672ZM269 672H333V571H269V672Z"  />
<glyph unicode="&#xEC;" horiz-adv-x="222" d="M81 0V505H141V0H81ZM125 558L-13 697H65L176 558H125Z"  />
<glyph unicode="&#xED;" horiz-adv-x="222" d="M81 0V505H141V0H81ZM161 697H241L98 560H48L161 697Z"  />
<glyph unicode="&#xEE;" horiz-adv-x="222" d="M81 0V505H141V0H81ZM30 558H-34L79 697H146L259 558H195L112 660L30 558Z"  />
<glyph unicode="&#xEF;" horiz-adv-x="222" d="M81 0V505H141V0H81ZM1 672H65V571H1V672ZM159 672H223V571H159V672Z"  />
<glyph unicode="&#xF0;" horiz-adv-x="444" d="M203 668Q186 678 177 683T160 691T142 698T111 710L154 747Q188 736 209 725T255 697L344 747L375 717L291 670Q314 647 333 620T367 551T388 449T396 299V198Q396 98 354 44T222 -10Q132 -10 90 44T48 198V307Q48 407 90 461T222 515Q270 515 291 503T324 471L326 473Q325 499 316 525T293 574T264 614T238 640L144 588L112 618L203 668ZM222 467Q185 467 163 452T128 409T112 342T108 253Q108 203 112 164T128 96T162 53T222 38Q259 38 281 53T316 96T332 163T336 253Q336 302 332 341T316 409T282 452T222 467Z"  />
<glyph unicode="&#xF1;" horiz-adv-x="444" d="M325 0V347Q325 369 321 389T306 425T279 450T236 460Q181 460 152 415T122 287V0H63V505H118V435Q138 472 171 491T246 511Q286 511 312 499T355 464T378 413T385 350V0H325ZM66 595Q68 613 74 631T92 664Q103 678 118 687T154 697Q172 697 191 688T228 670Q247 661 264 652T296 643Q317 643 327 660T340 697H378Q377 680 372 662T355 629Q345 614 331 605T296 595Q277 595 258 604T220 622Q201 631 184 640T150 649Q130 649 118 631T104 595H66Z"  />
<glyph unicode="&#xF2;" horiz-adv-x="444" d="M397 203Q397 153 389 113T361 45T306 2T218 -13Q167 -13 134 2T82 45T55 111T47 196V296Q47 344 55 384T83 454T138 499T227 515Q281 515 314 500T366 456T391 389T397 303V203ZM336 296Q336 328 333 359T318 414T285 452T226 467Q186 467 163 451T127 409T112 350T108 282V219Q108 187 110 154T124 95T159 51T226 34Q267 34 289 52T322 99T334 161T336 226V296ZM235 558L97 697H175L286 558H235Z"  />
<glyph unicode="&#xF3;" horiz-adv-x="444" d="M397 203Q397 153 389 113T361 45T306 2T218 -13Q167 -13 134 2T82 45T55 111T47 196V296Q47 344 55 384T83 454T138 499T227 515Q281 515 314 500T366 456T391 389T397 303V203ZM336 296Q336 328 333 359T318 414T285 452T226 467Q186 467 163 451T127 409T112 350T108 282V219Q108 187 110 154T124 95T159 51T226 34Q267 34 289 52T322 99T334 161T336 226V296ZM271 697H351L208 560H158L271 697Z"  />
<glyph unicode="&#xF4;" horiz-adv-x="444" d="M397 203Q397 153 389 113T361 45T306 2T218 -13Q167 -13 134 2T82 45T55 111T47 196V296Q47 344 55 384T83 454T138 499T227 515Q281 515 314 500T366 456T391 389T397 303V203ZM336 296Q336 328 333 359T318 414T285 452T226 467Q186 467 163 451T127 409T112 350T108 282V219Q108 187 110 154T124 95T159 51T226 34Q267 34 289 52T322 99T334 161T336 226V296ZM140 558H76L189 697H256L369 558H305L222 660L140 558Z"  />
<glyph unicode="&#xF5;" horiz-adv-x="444" d="M397 203Q397 153 389 113T361 45T306 2T218 -13Q167 -13 134 2T82 45T55 111T47 196V296Q47 344 55 384T83 454T138 499T227 515Q281 515 314 500T366 456T391 389T397 303V203ZM336 296Q336 328 333 359T318 414T285 452T226 467Q186 467 163 451T127 409T112 350T108 282V219Q108 187 110 154T124 95T159 51T226 34Q267 34 289 52T322 99T334 161T336 226V296ZM66 595Q68 613 74 631T92 664Q103 678 118 687T154 697Q172 697 191 688T228 670Q247 661 264 652T296 643Q317 643 327 660T340 697H378Q377 680 372 662T355 629Q345 614 331 605T296 595Q277 595 258 604T220 622Q201 631 184 640T150 649Q130 649 118 631T104 595H66Z"  />
<glyph unicode="&#xF6;" horiz-adv-x="444" d="M397 203Q397 153 389 113T361 45T306 2T218 -13Q167 -13 134 2T82 45T55 111T47 196V296Q47 344 55 384T83 454T138 499T227 515Q281 515 314 500T366 456T391 389T397 303V203ZM336 296Q336 328 333 359T318 414T285 452T226 467Q186 467 163 451T127 409T112 350T108 282V219Q108 187 110 154T124 95T159 51T226 34Q267 34 289 52T322 99T334 161T336 226V296ZM111 672H175V571H111V672ZM269 672H333V571H269V672Z"  />
<glyph unicode="&#xF7;" horiz-adv-x="444" d="M187 393V469H261V393H187ZM10 233V276H437V233H10ZM187 40V116H261V40H187Z"  />
<glyph unicode="&#xF8;" horiz-adv-x="444" d="M59 -44L29 -24L78 55Q67 72 61 94T52 138T49 176T48 198V318Q48 334 49 355T55 397T70 440T100 478T149 505T222 515Q264 515 293 505T342 477L385 547L415 528L367 451Q378 432 384 416T392 385T395 353T396 318V198Q396 149 387 111T358 45T304 4T222 -10Q180 -10 151 -1T103 26L59 -44ZM310 426Q299 449 277 458T222 467Q185 467 163 455T128 416T112 350T108 253Q108 213 109 180T118 119L310 426ZM135 78Q160 38 222 38Q253 38 272 46T302 66T317 89T324 105Q328 114 330 134T333 176T335 220T336 253Q336 289 335 323T326 384L135 78Z"  />
<glyph unicode="&#xF9;" horiz-adv-x="444" d="M322 0V56Q296 21 266 6T196 -10Q160 -10 135 2T94 35T71 86T64 150V505H124V144Q124 95 146 68T211 41Q260 41 289 76T318 171V505H379V71Q379 53 380 35T381 0H322ZM235 558L97 697H175L286 558H235Z"  />
<glyph unicode="&#xFA;" horiz-adv-x="444" d="M322 0V56Q296 21 266 6T196 -10Q160 -10 135 2T94 35T71 86T64 150V505H124V144Q124 95 146 68T211 41Q260 41 289 76T318 171V505H379V71Q379 53 380 35T381 0H322ZM271 697H351L208 560H158L271 697Z"  />
<glyph unicode="&#xFB;" horiz-adv-x="444" d="M322 0V56Q296 21 266 6T196 -10Q160 -10 135 2T94 35T71 86T64 150V505H124V144Q124 95 146 68T211 41Q260 41 289 76T318 171V505H379V71Q379 53 380 35T381 0H322ZM140 558H76L189 697H256L369 558H305L222 660L140 558Z"  />
<glyph unicode="&#xFC;" horiz-adv-x="444" d="M322 0V56Q296 21 266 6T196 -10Q160 -10 135 2T94 35T71 86T64 150V505H124V144Q124 95 146 68T211 41Q260 41 289 76T318 171V505H379V71Q379 53 380 35T381 0H322ZM111 672H175V571H111V672ZM269 672H333V571H269V672Z"  />
<glyph unicode="&#xFD;" horiz-adv-x="389" d="M169 -192H110L169 -2L10 505H74L198 91L318 505H378L169 -192ZM244 697H324L181 560H131L244 697Z"  />
<glyph unicode="&#xFE;" horiz-adv-x="444" d="M63 722H123V444L125 445Q148 482 182 498T253 515Q294 515 321 502T365 467T390 418T401 361T404 304T404 253Q404 211 401 165T382 80T335 16T248 -10Q165 -10 125 56L123 57V-191H63V722ZM123 208Q123 165 132 133T156 80T190 49T230 38Q272 38 295 54T329 100T342 168T344 251Q344 295 342 334T329 403T295 450T230 467Q215 467 197 458T162 429T134 377T123 298V208Z"  />
<glyph unicode="&#xFF;" horiz-adv-x="389" d="M169 -192H110L169 -2L10 505H74L198 91L318 505H378L169 -192ZM85 672H149V571H85V672ZM243 672H307V571H243V672Z"  />
<glyph unicode="&#x131;" horiz-adv-x="222" d="M81 0V505H141V0H81Z"  />
<glyph unicode="&#x152;" horiz-adv-x="778" d="M471 398H720V344H471V54H738V0H407Q396 0 386 0T364 -2Q353 -3 341 -3T312 -4Q219 -4 169 21T95 93T67 207T63 361Q63 399 63 441T68 523T85 601T124 665T191 709T294 726Q306 726 324 726T359 724Q376 723 389 723T407 722H731V668H471V398ZM407 664Q390 666 361 669T300 672Q238 672 204 653T152 595T131 497T127 358Q127 282 131 225T155 128T215 70T330 50Q350 50 368 51T407 53V664Z"  />
<glyph unicode="&#x153;" horiz-adv-x="722" d="M222 -10Q174 -10 141 4T87 45T57 110T48 198V318Q48 334 49 355T55 397T70 440T100 478T149 505T222 515Q277 515 311 494T365 427Q384 473 418 494T500 515Q565 515 600 493T652 434T671 346T674 240H386V201Q386 175 390 146T407 93T442 54T500 38Q557 38 584 70T611 154H674Q671 108 658 77T623 27T569 -1T500 -10Q482 -10 463 -8T426 3T392 26T362 68Q349 45 336 30T306 6T270 -6T222 -10ZM222 38Q253 38 272 46T302 66T317 89T324 105Q328 114 330 134T333 176T335 220T336 253Q336 309 332 349T316 416T282 454T222 467Q185 467 163 455T128 416T112 350T108 253Q108 241 108 220T110 177T114 134T120 105Q122 100 126 89T142 67T172 47T222 38ZM614 288Q614 330 610 363T593 419T559 455T500 467Q464 467 442 455T407 420T391 363T386 288H614Z"  />
<glyph unicode="&#x160;" horiz-adv-x="500" d="M445 172Q445 -12 253 -12Q160 -12 107 32T54 170V200H120V186Q120 145 129 117T155 73T198 49T255 42Q284 42 307 48T346 68T370 107T379 170Q379 196 375 215T358 252T323 285T267 322L193 365Q163 382 140 400T99 440T73 492T64 559Q64 643 113 688T254 733Q297 733 332 724T391 694T429 640T443 559V536H378V546Q378 615 348 646T253 678Q129 678 129 565Q129 538 134 518T152 481T186 448T241 412L319 365Q358 342 382 323T421 283T440 236T445 172ZM333 914H397L284 775H217L104 914H168L251 812L333 914Z"  />
<glyph unicode="&#x161;" horiz-adv-x="389" d="M345 132Q345 60 306 24T192 -13Q44 -13 44 135V148H105Q106 85 126 59T197 33Q239 33 261 55T284 120Q284 155 264 179T201 225L158 247Q115 269 86 302T57 387Q57 447 94 480T200 513Q242 513 269 503T312 474T334 428T341 367H282V373Q282 465 197 465Q161 465 139 446T117 389Q117 355 135 337T181 304Q189 299 203 292T230 278Q245 270 261 261Q303 238 324 209T345 132ZM278 697H342L229 558H162L49 697H113L196 595L278 697Z"  />
<glyph unicode="&#x178;" horiz-adv-x="500" d="M282 290V0H218V290L14 722H86L251 363L424 722H488L282 290ZM138 889H202V788H138V889ZM296 889H360V788H296V889Z"  />
<glyph unicode="&#x17D;" horiz-adv-x="444" d="M23 0V58L355 668H42V722H416V656L89 54H419V0H23ZM305 914H369L256 775H189L76 914H140L223 812L305 914Z"  />
<glyph unicode="&#x17E;" horiz-adv-x="333" d="M29 0V49L241 457H41V505H299V448L96 48H304V0H29ZM251 697H315L202 558H135L22 697H86L169 595L251 697Z"  />
<glyph unicode="&#x192;" horiz-adv-x="444" d="M363 685Q349 692 331 692Q288 692 274 651Q259 610 247 492H339L333 444H241L189 27Q181 -38 171 -75T146 -132Q132 -152 106 -163T47 -174Q42 -174 37 -174T27 -172L34 -119Q38 -120 40 -120T45 -121Q64 -121 79 -113T103 -87Q110 -72 114 -53T122 -15T127 24T131 60L179 444H97L104 492H184Q195 629 224 688Q238 715 266 731T329 747Q339 747 350 745T372 741L363 685Z"  />
<glyph unicode="&#x2C6;" horiz-adv-x="278" d="M57 558H-7L106 697H173L286 558H222L139 660L57 558Z"  />
<glyph unicode="&#x2C7;" horiz-adv-x="278" d="M222 697H286L173 558H106L-7 697H57L140 595L222 697Z"  />
<glyph unicode="&#x2DA;" horiz-adv-x="278" d="M139 736Q158 736 175 729T204 709T224 679T231 643Q231 624 224 607T205 577T175 557T139 549Q120 549 103 556T74 577T54 607T46 643Q46 662 53 679T73 708T103 728T139 736ZM139 701Q115 701 98 684T81 643Q81 620 98 602T139 584Q162 584 179 602T196 643Q196 666 179 683T139 701Z"  />
<glyph unicode="&#x2DC;" horiz-adv-x="278" d="M-17 595Q-15 613 -9 631T9 664Q20 678 35 687T71 697Q89 697 108 688T145 670Q164 661 181 652T213 643Q234 643 244 660T257 697H295Q294 680 289 662T272 629Q262 614 248 605T213 595Q194 595 175 604T137 622Q118 631 101 640T67 649Q47 649 35 631T21 595H-17Z"  />
<glyph unicode="&#x2013;" horiz-adv-x="500" d="M0 249V296H500V249H0Z"  />
<glyph unicode="&#x2014;" horiz-adv-x="1000" d="M0 249V296H1000V249H0Z"  />
<glyph unicode="&#x2018;" horiz-adv-x="222" d="M127 539H56L116 722H167L127 539Z"  />
<glyph unicode="&#x2019;" horiz-adv-x="222" d="M100 539H49L88 722H160L100 539Z"  />
<glyph unicode="&#x201A;" horiz-adv-x="222" d="M111 -104H59L100 78H170L111 -104Z"  />
<glyph unicode="&#x201C;" horiz-adv-x="389" d="M282 540H212L271 722H323L282 540ZM135 540H64L124 722H176L135 540Z"  />
<glyph unicode="&#x201D;" horiz-adv-x="389" d="M260 540H208L249 722H321L260 540ZM113 540H61L102 722H172L113 540Z"  />
<glyph unicode="&#x201E;" horiz-adv-x="389" d="M258 -104H206L247 78H318L258 -104ZM111 -104H59L100 78H170L111 -104Z"  />
<glyph unicode="&#x2020;" horiz-adv-x="444" d="M249 501V0H190V501H49V550H190V722H249V550H390V501H249Z"  />
<glyph unicode="&#x2021;" horiz-adv-x="444" d="M247 163V0H191V163H50V211H191V512H50V560H191V722H247V560H388V512H247V211H388V163H247Z"  />
<glyph unicode="&#x2022;" horiz-adv-x="606" d="M428 356Q428 319 414 287T376 230T320 192T250 178Q213 178 181 192T124 230T86 286T72 356Q72 393 86 425T124 482T180 520T250 534Q287 534 319 520T376 482T414 426T428 356Z"  />
<glyph unicode="&#x2026;" horiz-adv-x="1000" d="M795 0V79H870V0H795ZM462 0V79H537V0H462ZM129 0V79H204V0H129Z"  />
<glyph unicode="&#x2030;" horiz-adv-x="889" d="M873 149Q873 117 868 88T850 37T812 1T751 -12Q711 -12 688 5T653 48T638 106T635 170Q635 200 641 229T661 280T699 317T759 331Q800 331 823 315T857 272T870 214T873 149ZM246 528Q246 496 241 467T223 416T185 380T124 367Q84 367 61 384T26 427T11 485T8 549Q8 579 14 608T34 659T72 696T132 710Q173 710 196 694T230 651T243 593T246 528ZM156 -14H113L404 710H446L156 -14ZM568 149Q568 117 563 88T545 37T507 1T446 -12Q406 -12 383 5T348 48T333 106T330 170Q330 200 336 229T356 280T394 317T454 331Q495 331 518 315T552 272T565 214T568 149ZM818 171Q818 187 817 207T811 244T793 273T757 285Q731 285 717 271T697 237T691 193T690 151Q690 88 704 61T752 33Q779 33 792 47T812 83T818 128T818 171ZM191 550Q191 566 190 586T184 623T166 652T130 664Q104 664 90 650T70 616T64 572T63 530Q63 467 77 440T125 412Q152 412 165 426T185 462T191 507T191 550ZM513 171Q513 187 512 207T506 244T488 273T452 285Q426 285 412 271T392 237T386 193T385 151Q385 88 399 61T447 33Q474 33 487 47T507 83T513 128T513 171Z"  />
<glyph unicode="&#x2039;" horiz-adv-x="222" d="M101 253L177 59H124L37 253L127 447H179L101 253Z"  />
<glyph unicode="&#x203A;" horiz-adv-x="222" d="M93 59H37L117 253L39 447H94L181 253L93 59Z"  />
<glyph unicode="&#x20AC;" horiz-adv-x="444" d="M74 322V387H12L24 441H76V506Q76 611 121 659T250 707Q343 707 382 660T421 529H361Q361 595 336 623T253 652Q200 652 170 621T140 513V441H341L330 387H139V322H316L304 268H140V178Q140 41 256 41Q313 41 338 70T363 162H420Q420 75 380 30T254 -15Q166 -15 121 31T75 177V268H12L24 322H74Z"  />
<glyph unicode="&#x2122;" horiz-adv-x="722" d="M643 366V683L521 366H489L367 683V366H333V722H390L506 421L622 722H677V366H643ZM169 688V366H131V688H5V722H295V688H169Z"  />

</font>
</defs>
</svg>
