<?xml  version="1.0" encoding="UTF-8"?>
<!DOCTYPE svg PUBLIC "-//W3C//DTD SVG 1.0//EN" "http://www.w3.org/TR/2001/REC-SVG-20010904/DTD/svg10.dtd" >
<svg xmlns="http://www.w3.org/2000/svg" >
<metadata>
<version>1.0</version>
<id><![CDATA[Univers LT W01 57 Condensed]]></id>
<vendor>Monotype Imaging Inc.</vendor>
<credits>
<name>Fonts.com WebFonts</name>
<URL>http://webfonts.fonts.com</URL>
<role>Home of the Web fonts</role>
</credits>
<license>
<URL>http://webfonts.fonts.com/Legal</URL>
</license>
<copyright><![CDATA[Copyright © 2009 Linotype Corp., www.linotype.com. All rights reserved. This font software may not be reproduced, modified, disclosed or transferred without the express written approval of Linotype Corp. Univers is a trademark of Linotype Corp. registered in the U.S. Patent and Trademark Office and may be registered in certain other jurisdictions in the name of Linotype Corp. or its licensee Linotype GmbH. This typeface is original artwork of Adrian Frutiger. The design may be protected in certain jurisdictions.]]></copyright>
<trademark><![CDATA[Univers is a trademark of Linotype Corp. registered in the U.S. Patent and Trademark Office and may be registered in certain other jurisdictions in the name of Linotype Corp. or its licensee Linotype GmbH.]]></trademark>
<licensee>
<name></name>
</licensee>
</metadata>
<defs >
<font horiz-adv-x="463" id="0abcce12-2274-4ee7-b6d5-0066b5f5f670">
<font-face font-family="" panose-1="2 11 5 6 2 2 2 5 2 4" ascent="989" descent="-225" units-per-em="1000" alphabetic="0">
</font-face>
<missing-glyph horiz-adv-x="0" />

<glyph unicode="&#xA;" />
<glyph unicode="&#xD;" horiz-adv-x="0" />
<glyph unicode=" " horiz-adv-x="222" />
<glyph unicode="!" horiz-adv-x="333" d="M200 167H130L111 722H220L200 167ZM118 0V98H212V0H118Z"  />
<glyph unicode="&quot;" horiz-adv-x="250" d="M39 491L30 708H95L85 491H39ZM164 491L154 708H220L211 491H164Z"  />
<glyph unicode="#" horiz-adv-x="444" d="M51 0L90 215H13V272H101L132 439H54V496H142L182 708H246L207 496H288L327 708H391L352 496H431V439H342L311 272H389V215H301L260 0H196L236 215H155L115 0H51ZM278 439H197L165 272H246L278 439Z"  />
<glyph unicode="$" horiz-adv-x="444" d="M241 60Q286 65 314 95T342 174Q342 196 334 213T313 245T281 271T241 295V60ZM202 630Q165 625 143 597T120 527Q120 485 143 460T202 416V630ZM241 -76H202V-13Q141 -13 106 6T48 54Q34 73 26 93T15 134T10 172T9 206H103Q103 179 108 154T124 108T155 75T202 60V317Q170 333 139 350T82 391T42 444T26 517Q26 559 39 593T76 652T132 691T202 705V769H241V705Q341 705 388 655T435 506H334Q334 561 315 594T241 630V394Q275 378 309 361T372 319T418 261T436 177Q436 125 418 89T372 31T309 -2T241 -13V-76Z"  />
<glyph unicode="%" horiz-adv-x="778" d="M256 -11H192L504 708H569L256 -11ZM322 512Q322 477 319 444T304 384T266 342T197 326Q151 326 127 343T91 388T77 450T75 519Q75 556 77 590T92 650T130 692T201 708Q247 708 271 691T307 646T320 583T322 512ZM257 521Q257 550 256 574T250 617T232 645T199 655Q179 655 168 647T150 621T143 572T141 496Q141 481 141 461T146 422T162 392T197 379Q222 379 235 395T252 433T257 480T257 521ZM703 175Q703 140 700 107T685 47T647 5T578 -11Q532 -11 508 6T472 51T458 113T456 182Q456 219 458 253T473 313T511 355T582 371Q628 371 652 354T688 309T701 246T703 175ZM638 184Q638 213 637 237T631 280T613 308T580 318Q560 318 549 310T531 284T524 235T522 159Q522 144 522 124T527 85T543 55T578 42Q603 42 616 58T633 96T638 143T638 184Z"  />
<glyph unicode="&amp;" horiz-adv-x="667" d="M544 0L486 74Q445 24 400 5T288 -15Q177 -15 114 41T50 195Q50 238 62 270T97 328T147 373T208 412Q191 429 175 450T145 495T123 544T114 595Q114 661 159 696T288 731Q369 731 412 696T456 592Q456 561 446 534T420 483T382 438T339 399L480 220Q491 261 494 307T497 395Q497 402 497 408T496 425H572V405Q572 374 572 342T568 277T556 214T532 155L648 0H544ZM365 590Q365 623 345 642T288 661Q250 661 229 642T207 588Q207 570 215 552T234 517T259 484T285 456Q324 489 344 523T365 590ZM259 359Q237 344 216 329T179 295T152 253T142 201Q142 136 183 98T294 59Q388 59 437 134L259 359Z"  />
<glyph unicode="&apos;" horiz-adv-x="250" d="M103 491L93 708H158L149 491H103Z"  />
<glyph unicode="(" horiz-adv-x="278" d="M211 756Q187 645 166 536T144 313Q144 262 149 207T162 96T182 -15T208 -119H150Q133 -66 116 -13T84 95T60 205T50 317Q50 374 59 429T83 540T116 649T151 756H211H211Z"  />
<glyph unicode=")" horiz-adv-x="278" d="M229 320Q229 264 219 208T194 97T161 -13T127 -119H67Q93 -10 114 100T135 323Q135 432 117 541T71 756H128Q145 703 163 650T195 542T219 432T229 320Z"  />
<glyph unicode="*" horiz-adv-x="444" d="M412 510L254 524L342 394L286 360L221 507L154 363L96 395L185 525L31 510V576L187 564L97 691L156 725L221 583L283 726L345 694L253 564L413 579L412 510Z"  />
<glyph unicode="+" horiz-adv-x="500" d="M281 219V12H216V219H9V284H216V491H281V284H488V219H281Z"  />
<glyph unicode="&#x2c;" horiz-adv-x="222" d="M98 -128H34L86 104H189L98 -128Z"  />
<glyph unicode="-" horiz-adv-x="333" d="M57 234V308H277V234H57Z"  />
<glyph unicode="." horiz-adv-x="222" d="M62 0V104H159V0H62Z"  />
<glyph unicode="/" horiz-adv-x="278" d="M68 -11H-6L210 740H284L68 -11Z"  />
<glyph unicode="0" horiz-adv-x="444" d="M408 305Q408 252 405 197T383 95T327 20T220 -9Q174 -9 143 4T91 38T59 89T43 152T37 221T36 290V404Q36 454 38 508T58 606T112 680T219 709Q287 709 325 682T381 611T404 513T408 405V305ZM318 409Q318 430 317 468T306 543T278 607T222 635Q183 635 164 606T136 537T127 455T126 387V260Q126 236 128 202T139 137T167 84T219 62Q247 62 265 76T295 115T311 168T317 227T319 284T318 329V409Z"  />
<glyph unicode="1" horiz-adv-x="444" d="M197 0V593Q172 574 146 557T93 523V611Q105 616 121 625T153 646T183 670T206 694H289V0H197Z"  />
<glyph unicode="2" horiz-adv-x="444" d="M43 0V83L218 321Q236 345 252 369T280 418T299 471T306 531Q306 580 285 606T222 633Q198 633 183 625T157 602T143 568T139 528V515H45Q45 522 45 527T44 536Q44 621 90 663T221 705Q398 705 398 523Q398 484 389 450T365 383T328 320T284 260L141 80H415V0H43Z"  />
<glyph unicode="3" horiz-adv-x="444" d="M409 186Q409 89 359 38T212 -14Q160 -14 124 -1T66 35T35 90T25 157V191H114V175Q114 126 137 94T214 62Q319 62 319 193Q319 262 288 292T188 323H169V404Q177 403 181 403T191 403Q312 403 312 521Q312 573 287 602T215 631Q172 631 149 604T126 525V507H35V529Q35 617 81 661T216 706Q306 706 354 660T403 528Q403 385 266 363Q306 355 333 343T377 311T401 261T409 186Z"  />
<glyph unicode="4" horiz-adv-x="444" d="M343 174V0H252V175H25V273L221 694H343V249H425V174H343ZM252 560L255 611L94 249H252V560Z"  />
<glyph unicode="5" horiz-adv-x="444" d="M409 223Q409 174 401 132T371 60T313 12T221 -6Q132 -6 91 36T49 168H140V157Q140 117 161 91T225 64Q259 64 278 80T307 121T319 175T321 230Q321 315 300 350T229 385Q189 385 169 363T142 304H53L64 694H383V620H152L141 400Q183 457 262 457Q313 457 342 436T387 381T405 305T409 223Z"  />
<glyph unicode="6" horiz-adv-x="444" d="M411 226Q411 180 402 139T372 65T316 14T228 -5Q150 -5 104 40T50 160Q46 197 43 247T40 364V386Q40 439 43 496T65 600T121 677T229 708Q271 708 303 696T356 661T388 610T399 546V536H307V539Q307 582 284 609T226 637Q191 637 172 616T144 560T133 480T131 387Q148 416 180 432T246 449Q295 449 327 430T377 380T403 308T411 226ZM321 231Q321 254 318 279T304 326T276 361T228 375Q197 375 179 361T150 324T137 275T134 224Q134 65 227 65Q260 65 279 82T307 124T319 178T321 231Z"  />
<glyph unicode="7" horiz-adv-x="444" d="M204 0H102L294 616H30V694H389V615L204 0Z"  />
<glyph unicode="8" horiz-adv-x="444" d="M406 191Q406 99 361 45T220 -9Q131 -9 85 42T38 192Q38 263 65 308T162 368Q105 380 76 420T46 527Q46 613 92 660T222 707Q305 707 351 661T398 530Q398 464 370 424T279 368Q406 356 406 191ZM309 530Q309 581 286 610T223 639Q183 639 159 610T135 529Q135 474 158 442T220 409Q262 409 285 441T309 530ZM317 195Q317 258 292 293T222 328Q194 328 176 316T148 284T133 241T129 194Q129 131 153 98T223 65Q268 65 292 99T317 195Z"  />
<glyph unicode="9" horiz-adv-x="444" d="M404 341Q404 306 403 268T400 195Q394 95 347 43T215 -9Q178 -9 147 3T94 36T59 88T46 155V165H138Q139 118 160 92T217 65Q251 65 270 84T300 136T313 211T316 301Q316 308 316 317T315 338Q296 304 265 288T195 271Q119 271 77 327T35 483Q35 528 44 568T75 638T132 686T217 704Q289 704 327 673T382 590T401 473T404 341ZM310 491Q310 560 287 596T218 633Q188 633 170 619T141 582T128 534T124 484Q124 462 127 437T141 391T169 357T215 343Q246 343 264 357T293 393T306 441T310 491Z"  />
<glyph unicode=":" horiz-adv-x="222" d="M63 397V505H160V397H63ZM63 0V104H160V0H63Z"  />
<glyph unicode=";" horiz-adv-x="222" d="M65 398V505H162V398H65ZM86 -128H21L73 104H176L86 -128Z"  />
<glyph unicode="&lt;" horiz-adv-x="500" d="M25 277L476 456V389L104 245L476 101V34L25 212V277Z"  />
<glyph unicode="=" horiz-adv-x="500" d="M24 307V371H476V307H24ZM24 132V196H476V132H24Z"  />
<glyph unicode="&gt;" horiz-adv-x="500" d="M25 34V101L397 245L25 389V456L476 277V212L25 34Z"  />
<glyph unicode="?" horiz-adv-x="444" d="M394 567Q394 531 386 501T363 445T329 393T289 340Q279 327 273 318T264 300T260 281T259 255V183H179V270Q179 289 180 303T184 330T193 354T210 378Q296 479 296 569Q296 614 277 640T224 666Q188 666 169 637T150 552V530H56V554Q56 643 99 689T228 735Q307 735 350 691T394 567ZM171 0V98H264V0H171Z"  />
<glyph unicode="@" horiz-adv-x="889" d="M531 396Q531 427 518 446T470 466Q441 466 423 450T392 410T374 358T361 303Q356 277 351 252T346 204Q346 175 357 157T399 138Q430 138 450 154T483 196T505 254T521 320Q526 340 528 359T531 396ZM520 172Q497 132 460 108T378 84Q318 84 291 117T263 201Q263 230 268 259T279 317Q288 357 300 394T333 460T383 505T460 522Q491 522 514 507T552 468L563 516H646L595 284Q590 263 585 239T578 193Q578 173 589 160T630 146Q666 146 697 168T752 227T789 307T802 394Q802 464 775 518T702 609T595 665T467 684Q378 684 308 655T188 573T113 448T86 290Q86 206 112 139T185 23T299 -50T449 -76Q545 -76 621 -48T775 34L806 -6Q722 -67 637 -99T446 -131Q354 -131 277 -102T145 -19T58 113T27 291Q27 390 59 472T150 614T289 707T467 740Q545 740 616 717T742 650T829 540T862 392Q862 341 846 287T799 188T722 114T616 85Q598 85 581 89T551 104T529 131T520 172Z"  />
<glyph unicode="A" horiz-adv-x="611" d="M493 0L441 172H162L109 0H15L244 722H361L596 0H493ZM300 637L184 250H418L300 637Z"  />
<glyph unicode="B" horiz-adv-x="611" d="M538 203Q538 140 520 101T469 39T395 8T305 0H90V722H329Q370 722 404 711T463 678T501 624T515 550Q515 410 391 381V376Q466 366 502 324T538 203ZM423 530Q423 572 408 595T371 629T325 642T281 644H183V417H278Q302 417 328 419T375 432T409 466T423 530ZM444 210Q444 249 426 282T368 328Q347 334 317 336T248 338H183V80H244Q282 80 318 82T382 97T427 135T444 210Z"  />
<glyph unicode="C" horiz-adv-x="556" d="M504 205Q504 95 450 42T287 -11Q233 -11 196 4T135 45T99 105T80 179T73 259T72 341V441Q72 502 80 555T113 647T183 708T303 730Q401 730 448 684T495 538V517H399V529Q399 557 395 580T378 619T346 643T295 652Q246 652 220 632T181 581T168 511T166 434V281Q166 223 172 183T194 117T232 80T289 68Q407 68 409 219H504V205H504Z"  />
<glyph unicode="D" horiz-adv-x="611" d="M531 345Q531 260 522 196T483 88T396 22T244 0H83V722H293Q374 722 421 697T493 623T524 504T531 345ZM439 372Q439 450 433 502T410 585T361 629T277 642H176V80H247Q311 80 349 92T407 138T433 227T439 372Z"  />
<glyph unicode="E" horiz-adv-x="500" d="M81 0V722H453V642H173V410H433V331H173V80H460V0H81Z"  />
<glyph unicode="F" horiz-adv-x="444" d="M167 642V410H418V331H167V0H74V722H432V642H167Z"  />
<glyph unicode="G" horiz-adv-x="611" d="M427 529Q427 661 310 661Q255 661 226 643T183 588T169 494T167 358Q167 295 168 241T182 148T226 86T317 63Q346 63 375 70T427 94V308H295V390H520V39Q425 -14 313 -14Q225 -14 177 16T105 96T77 213T72 350Q72 399 72 446T78 537T97 617T138 680T208 722T315 737Q372 737 411 726T476 689T512 625T523 529H427Z"  />
<glyph unicode="H" horiz-adv-x="611" d="M432 0V333H179V0H87V722H179V413H432V722H524V0H432Z"  />
<glyph unicode="I" horiz-adv-x="278" d="M93 0V722H186V0H93Z"  />
<glyph unicode="J" horiz-adv-x="500" d="M410 185Q410 91 363 39T215 -14Q116 -14 73 41T30 190Q30 196 30 205T31 226H127Q127 221 127 219T126 215T126 211T126 205Q126 180 128 155T139 110T166 77T216 64Q247 64 266 76T297 107T313 152T318 204V722H410V185H410Z"  />
<glyph unicode="K" horiz-adv-x="556" d="M429 0L173 377V0H81V722H173V405L428 722H532L269 396L547 0H429Z"  />
<glyph unicode="L" horiz-adv-x="444" d="M82 0V722H174V80H438V0H82Z"  />
<glyph unicode="M" horiz-adv-x="833" d="M660 0V641L456 0H370L169 641V0H84V722H233L416 116L601 722H748V0H660Z"  />
<glyph unicode="N" horiz-adv-x="667" d="M456 0L169 626V0H86V722H215L499 104V722H581V0H456Z"  />
<glyph unicode="O" horiz-adv-x="611" d="M532 343Q532 275 528 212T502 98T433 18T299 -12Q231 -12 188 10T121 72T87 163T78 274V438Q78 498 84 553T114 649T182 715T304 740Q383 740 429 713T497 641T526 536T532 413V343ZM438 424Q438 462 437 504T424 581T385 638T304 661Q235 661 204 620T172 484V270Q172 214 179 175T201 112T242 77T303 66Q352 66 379 82T419 129T435 206T438 314V424Z"  />
<glyph unicode="P" horiz-adv-x="556" d="M506 518Q506 460 489 422T443 360T374 328T290 318H185V0H93V722H297Q341 722 379 714T445 683T490 620T506 518ZM414 524Q414 566 400 590T367 625T326 639T290 642H185V398H255Q281 398 309 400T360 414T399 451T414 524Z"  />
<glyph unicode="Q" horiz-adv-x="611" d="M414 0Q404 0 395 -1T375 -3Q355 -4 336 -4T296 -4Q228 -4 185 18T118 80T84 171T75 282V438Q75 498 81 553T111 649T179 715T301 740Q380 740 426 713T494 641T523 536T529 413V343Q529 295 528 257T520 185T501 123T465 64Q505 79 567 79H602V0H414ZM435 424Q435 462 434 504T421 581T382 638T301 661Q232 661 201 620T169 484V278Q169 222 176 183T198 120T239 85T300 74Q349 74 376 88T416 133T432 208T435 314V424Z"  />
<glyph unicode="R" horiz-adv-x="556" d="M417 0Q410 16 406 37T400 81L394 192Q392 232 386 258T366 301T325 325T257 332H173V0H80V722H340Q359 722 387 715T440 688T484 633T503 543Q503 475 469 432T371 376Q404 371 426 359T461 326T480 276T488 209L489 183Q491 136 496 91T513 0H417ZM409 531Q409 577 393 600T355 632T314 642T287 642H173V410H280Q293 410 314 412T357 425T393 461T409 531Z"  />
<glyph unicode="S" horiz-adv-x="556" d="M496 183Q496 138 481 103T436 42T365 3T273 -11Q169 -11 115 40T60 190V221H151V201Q151 139 184 104T275 68Q332 68 367 99T402 183Q402 221 379 249T323 294L221 348Q145 388 111 434T77 543Q77 633 135 684T293 735Q390 735 440 686T490 540V524H394V537Q394 592 368 623T285 655Q231 655 201 628T171 551Q171 523 183 501T215 462T258 432T305 409Q345 391 372 373T407 348Q456 309 476 273T496 183Z"  />
<glyph unicode="T" horiz-adv-x="500" d="M296 642V0H203V642H14V722H486V642H296Z"  />
<glyph unicode="U" horiz-adv-x="611" d="M529 241Q529 185 518 139T481 58T412 5T305 -14Q193 -14 138 48T82 219V722H174V221Q174 144 207 105T306 65Q346 65 372 78T413 113T433 167T439 234V722H529V241H529Z"  />
<glyph unicode="V" horiz-adv-x="556" d="M332 0H222L13 722H113L279 87L449 722H543L332 0Z"  />
<glyph unicode="W" horiz-adv-x="889" d="M691 0H579L441 626L294 0H182L6 722H104L241 96L387 722H506L638 96L786 722H882L691 0Z"  />
<glyph unicode="X" horiz-adv-x="556" d="M436 0L268 309L109 0H9L217 374L20 722H125L274 442L424 722H525L330 374L547 0H436Z"  />
<glyph unicode="Y" horiz-adv-x="500" d="M294 290V0H203V292L8 722H111L253 373L398 722H492L294 290Z"  />
<glyph unicode="Z" horiz-adv-x="500" d="M25 0V90L362 642H37V722H468V639L120 80H476V0H25Z"  />
<glyph unicode="[" horiz-adv-x="278" d="M71 -122V753H236V699H149V-69H236V-122H71Z"  />
<glyph unicode="\" horiz-adv-x="278" d="M210 -11L-6 740H68L284 -11H210Z"  />
<glyph unicode="]" horiz-adv-x="278" d="M41 -122V-67H129V701H42V753H207V-122H41Z"  />
<glyph unicode="^" horiz-adv-x="500" d="M218 708H281L450 291H382L248 629L118 291H49L218 708Z"  />
<glyph unicode="_" horiz-adv-x="500" d="M0 -75H500V-125H0V-75Z"  />
<glyph unicode="`" horiz-adv-x="278" d="M151 579L20 720H129L218 579H151Z"  />
<glyph unicode="a" horiz-adv-x="500" d="M338 0L334 73H332Q313 29 282 9T203 -11Q137 -11 102 29T66 145Q66 190 79 221T119 273T190 303T294 313H331V345Q331 360 330 379T321 414T296 442T248 454Q210 454 188 434T166 376Q166 374 166 371T167 363H78Q80 441 121 478T249 516Q327 516 370 481T413 363V102Q413 79 415 51T423 0H338ZM332 218Q332 223 332 230T331 251Q320 252 316 252T306 252Q277 252 249 250T199 237T163 206T149 149Q149 105 170 81T230 57Q262 57 282 73T313 113T328 165T332 218Z"  />
<glyph unicode="b" horiz-adv-x="500" d="M444 239Q444 194 439 150T415 70T365 13T278 -9Q204 -9 166 60V0H80V722H167V454Q190 486 216 500T279 515Q338 515 371 490T421 424T440 334T444 239ZM358 250Q358 284 356 319T345 383T316 430T261 448Q227 448 208 432T178 390T165 331T162 265Q162 222 165 185T178 119T207 75T257 59Q293 59 313 75T343 119T355 180T358 250Z"  />
<glyph unicode="c" horiz-adv-x="500" d="M426 168Q426 90 382 40T253 -10Q193 -10 158 12T104 70T80 152T74 248Q74 322 83 373T115 455T174 501T264 515Q341 515 381 475T422 357V343H337Q337 398 318 423T257 448Q225 448 206 433T177 391T163 328T159 252Q159 152 181 106T253 59Q277 59 294 68T321 92T335 127T340 168H426H426Z"  />
<glyph unicode="d" horiz-adv-x="500" d="M335 0V60Q297 -9 222 -9Q169 -9 137 13T87 70T63 149T57 237Q57 283 60 332T78 422T127 489T221 515Q262 515 286 500T334 454V722H420V0H335ZM339 265Q339 292 337 324T326 383T296 429T240 448Q205 448 186 431T157 385T145 321T143 248Q143 213 145 179T158 119T189 76T244 59Q280 59 299 78T327 128T337 194T339 265Z"  />
<glyph unicode="e" horiz-adv-x="500" d="M152 226Q152 200 153 171T164 115T193 72T249 55Q331 55 342 153H432Q428 -12 251 -12Q184 -12 147 10T91 69T68 156T63 261Q63 330 73 379T106 458T164 503T250 518Q310 518 346 500T403 450T430 373T437 277V226H152ZM349 300Q349 326 346 353T333 403T302 439T249 453Q215 453 196 437T167 395T155 342T152 288H349V300Z"  />
<glyph unicode="f" horiz-adv-x="278" d="M170 440V0H85V440H8V505H85V576Q85 615 91 643T114 689T158 717T228 726Q249 726 269 722V662Q264 663 260 663T250 663Q220 663 204 655T180 633T171 599T170 554V505H269V440H170Z"  />
<glyph unicode="g" horiz-adv-x="500" d="M422 -35Q422 -119 380 -157T250 -195Q217 -195 187 -189T134 -167T97 -127T83 -65V-57H175Q176 -92 196 -110T255 -129Q287 -129 303 -118T327 -89T336 -46T337 4V63Q322 34 293 19T224 3Q170 3 138 27T89 88T67 171T62 260Q62 389 101 450T225 512Q266 512 293 496T340 443V505H422V-35ZM343 245Q343 272 342 307T333 372T304 424T246 446Q210 446 191 428T162 383T150 325T148 268Q148 242 149 208T160 142T189 90T246 69Q282 69 301 87T330 131T341 188T343 245Z"  />
<glyph unicode="h" horiz-adv-x="500" d="M343 0V335Q343 356 341 376T329 413T304 439T260 449Q232 449 213 439T181 412T163 372T157 324V0H71V722H156V440Q179 481 210 498T291 515Q331 515 358 503T400 470T422 420T429 358V0H343Z"  />
<glyph unicode="i" horiz-adv-x="222" d="M65 634V722H157V634H65ZM68 0V505H154V0H68Z"  />
<glyph unicode="j" horiz-adv-x="222" d="M65 634V722H157V634H65ZM154 -90Q154 -138 123 -164T33 -190Q27 -190 23 -190T8 -189V-122Q28 -121 40 -117T58 -105T66 -83T68 -51V505H154V-90Z"  />
<glyph unicode="k" horiz-adv-x="444" d="M335 0L157 278V0H72V722H157V292L310 505H409L242 288L440 0H335Z"  />
<glyph unicode="l" horiz-adv-x="222" d="M68 0V722H154V0H68Z"  />
<glyph unicode="m" horiz-adv-x="722" d="M570 0V367Q570 406 550 428T488 450Q461 450 445 441T419 417T407 382T404 338V0H319V346Q319 365 317 383T306 416T283 440T244 449Q216 449 198 440T170 416T157 381T153 337V0H67V440L65 505H150V442Q167 478 198 497T274 516Q293 516 311 513T346 502T374 482T394 450Q416 488 448 502T524 516Q587 516 621 481T656 381V0H570Z"  />
<glyph unicode="n" horiz-adv-x="500" d="M344 0V335Q344 357 342 377T330 414T305 439T261 449Q233 449 214 439T182 412T164 372T158 324V0H72V440L70 505H157V440Q180 480 211 497T292 515Q335 515 362 503T404 468T424 415T430 348V0H344Z"  />
<glyph unicode="o" horiz-adv-x="500" d="M442 248Q442 192 436 145T408 62T348 6T245 -14Q180 -14 143 7T86 66T62 152T57 255Q57 310 63 358T88 442T146 498T249 519Q315 519 353 498T411 441T436 355T442 248ZM354 272Q354 300 352 332T341 390T310 433T252 451Q212 451 191 432T159 384T148 322T146 258Q146 220 147 184T158 119T189 73T249 55Q289 55 310 74T341 124T352 194T354 272Z"  />
<glyph unicode="p" horiz-adv-x="500" d="M442 268Q442 221 439 172T421 82T372 15T278 -11Q204 -11 166 51V-192H79V505H165V444Q203 514 277 514Q331 514 363 493T413 437T436 358T442 268ZM357 277Q357 304 355 334T342 388T311 429T255 446Q217 446 198 424T170 369T161 301T160 239Q160 213 162 181T173 121T203 74T260 55Q300 55 320 79T348 139T356 212T357 277Z"  />
<glyph unicode="q" horiz-adv-x="500" d="M335 -192V51Q296 -11 222 -11Q162 -11 129 15T81 81T62 171T58 265Q58 315 65 360T91 440T141 494T223 514Q297 514 336 444V505H421V-192H335ZM340 240Q340 278 338 315T327 381T298 428T245 446Q191 446 168 406T144 275Q144 232 146 193T158 123T187 74T241 56Q277 56 297 75T326 121T338 181T340 240Z"  />
<glyph unicode="r" horiz-adv-x="333" d="M317 424Q309 426 297 426T276 427Q222 427 193 398T163 317V0H77V440L75 505H161V427Q171 451 182 467T209 493T245 507T295 511Q300 511 306 511T317 509V424H317Z"  />
<glyph unicode="s" horiz-adv-x="444" d="M397 135Q397 66 351 29T220 -9Q135 -9 91 30T47 144V153H135V144Q135 57 220 57Q264 57 288 76T312 129Q312 170 269 192L142 258Q98 281 79 309T59 375Q59 412 73 438T112 481T166 504T230 512Q307 512 349 478T391 378V368H306Q306 370 306 371T307 374Q307 449 222 449Q184 449 163 432T142 384Q142 373 145 364T155 347T176 331T210 313L318 259Q397 220 397 135Z"  />
<glyph unicode="t" horiz-adv-x="278" d="M279 2Q259 -2 239 -3T199 -5Q171 -5 150 -1T115 13T93 43T85 93V440H0V505H85V602L170 639V505H277V440H170V141Q170 121 172 106T181 81T203 66T242 61Q262 61 279 65V2H279Z"  />
<glyph unicode="u" horiz-adv-x="500" d="M340 0V61H337Q295 -8 205 -8Q74 -8 74 132V505H159V137Q159 102 182 80T242 57Q284 57 310 88T337 171V505H423V65L425 0H340Z"  />
<glyph unicode="v" horiz-adv-x="444" d="M271 0H165L14 505H107L220 76L344 505H430L271 0Z"  />
<glyph unicode="w" horiz-adv-x="722" d="M578 0H468L359 426L245 0H135L9 505H100L192 76L305 505H421L525 76L626 505H714L578 0Z"  />
<glyph unicode="x" horiz-adv-x="444" d="M333 0L214 207L102 0H9L165 263L23 505H123L222 321L328 505H420L270 263L434 0H333Z"  />
<glyph unicode="y" horiz-adv-x="444" d="M206 -192H122L179 -2L7 505H102L225 94L347 505H436L206 -192Z"  />
<glyph unicode="z" horiz-adv-x="389" d="M36 0V71L250 440H46V505H347V439L130 65H354V0H36Z"  />
<glyph unicode="{" horiz-adv-x="274" d="M123 -37Q106 -5 104 32T102 103V144Q102 224 72 255T-15 286V342Q40 342 71 376T102 483V514Q102 546 103 583T116 650Q141 712 184 732T290 753V700Q230 700 205 664T180 561V510Q180 477 178 447T166 391T136 346T81 314Q118 302 138 283T167 238T178 182T180 118V84Q180 47 184 19T200 -29T233 -59T290 -69V-121Q260 -121 236 -118T191 -106T154 -81T123 -37Z"  />
<glyph unicode="|" horiz-adv-x="250" d="M92 786H157V-214H92V786Z"  />
<glyph unicode="}" horiz-adv-x="274" d="M290 286Q234 286 204 255T173 144V103Q173 69 171 32T152 -37Q138 -64 122 -80T85 -106T40 -118T-15 -121V-69Q19 -69 40 -59T74 -30T90 18T95 84V118Q95 151 96 181T107 237T137 282T194 314Q159 326 139 345T109 391T97 447T95 510V561Q95 628 70 664T-15 700V753Q48 753 91 733T159 650Q170 621 171 584T173 514V483Q173 410 204 376T290 342V286H290Z"  />
<glyph unicode="~" horiz-adv-x="500" d="M465 319Q462 293 455 268T435 224T403 192T357 180Q329 180 299 191T241 215T186 240T138 252Q109 252 98 228T81 174H33Q36 201 43 226T62 271T94 303T140 315Q167 315 195 304T252 279T309 254T361 243Q376 243 385 249T401 266T410 290T417 319H465H465Z"  />
<glyph unicode="&#xA0;" horiz-adv-x="222" />
<glyph unicode="&#xA1;" horiz-adv-x="333" d="M203 364L221 -191H112L132 364H203ZM214 427H120V531H214V427Z"  />
<glyph unicode="&#xA2;" horiz-adv-x="444" d="M397 168Q397 126 383 93T347 36T296 1T238 -11Q210 -11 185 -7T136 9L108 -58L71 -42L102 33Q76 61 61 111T46 245Q46 300 51 349T76 435T134 493T238 515Q272 515 299 506L325 569L360 554L334 490Q398 449 393 343H308Q308 361 307 377T300 406L167 85Q190 56 238 56Q257 56 271 65T293 91T306 127T311 168H397ZM271 439Q259 448 238 448Q214 448 195 441T161 416T140 365T132 280Q132 232 134 196T143 134H145L271 439Z"  />
<glyph unicode="&#xA3;" horiz-adv-x="444" d="M336 528V540Q336 633 255 633Q230 633 214 625T188 603T174 569T170 529V404H306V331H170V80H428V0H4V80H78V331H4V404H78V519Q78 610 125 659T260 708Q340 708 386 666T432 549V528H336Z"  />
<glyph unicode="&#xA4;" horiz-adv-x="444" d="M46 207Q4 263 4 337Q4 407 46 467L-10 524L37 572L93 516Q122 536 154 547T222 558Q257 558 288 548T351 516L408 572L454 524L398 467Q418 437 429 405T441 337Q441 268 398 207L454 149L408 101L351 158Q322 139 290 127T223 115Q152 115 94 158L37 101L-10 150L46 207ZM222 488Q191 488 165 476T119 443T88 395T77 337Q77 307 88 280T118 231T164 198T222 185Q253 185 280 197T326 231T357 279T368 337Q368 367 357 394T327 442T280 475T222 488Z"  />
<glyph unicode="&#xA5;" horiz-adv-x="444" d="M66 199H180V265H66V332H155L-2 694H95L225 373L359 694H447L287 332H378V265H262V199H378V132H262V0H180V132H66V199Z"  />
<glyph unicode="&#xA6;" horiz-adv-x="250" d="M90 411V661H159V411H90ZM90 -89V161H159V-89H90Z"  />
<glyph unicode="&#xA7;" horiz-adv-x="444" d="M389 133Q389 64 337 24T196 -16Q164 -16 132 -11T70 5L72 86Q106 75 133 66T197 56Q243 56 268 76T294 131Q294 177 239 194L190 214Q165 221 141 231T98 256T68 292T56 344Q56 427 160 472Q119 488 94 515T69 589Q69 651 117 689T246 727Q273 727 301 722T356 708V634Q327 647 298 654T245 661Q210 661 187 643T164 597Q164 574 178 556T219 530L251 520Q319 499 351 468T383 389Q383 346 356 312T280 259Q389 229 389 133ZM300 375Q300 429 215 450Q186 439 162 417T138 362Q138 338 152 320T192 293L219 284Q234 291 248 299T274 317T293 342T300 375Z"  />
<glyph unicode="&#xA8;" horiz-adv-x="278" d="M98 590H4V694H98V590ZM274 590H180V694H274V590Z"  />
<glyph unicode="&#xA9;" horiz-adv-x="800" d="M400 740Q478 740 546 711T666 630T746 511T776 364Q776 286 747 218T666 98T547 18T400 -12Q322 -12 254 17T134 98T54 217T24 364Q24 442 53 510T134 630T253 710T400 740ZM400 45Q465 45 522 70T623 139T691 241T716 364Q716 429 691 487T623 588T523 657T400 683Q334 683 277 658T176 590T108 488T83 364Q83 299 108 241T176 140T276 71T400 45ZM521 435Q513 481 482 507T404 533Q374 533 350 521T308 488T280 436T270 369Q270 331 280 300T308 247T353 212T410 199Q455 199 484 223T524 290H583Q579 258 564 232T526 186T474 156T410 145Q365 145 327 161T262 207T218 277T202 366Q202 414 217 454T258 525T321 571T401 588Q437 588 469 577T525 545T563 496T580 435H521Z"  />
<glyph unicode="&#xAA;" horiz-adv-x="300" d="M122 421Q80 421 57 446T33 517Q33 573 67 597T180 621H190V630Q190 661 181 673T148 686Q108 686 108 649Q108 646 108 643T109 634H40Q41 688 67 712T149 737Q255 737 255 642V504L261 427H195L193 452Q179 436 163 429T122 421ZM138 476Q161 476 175 494Q183 505 186 520T190 564V570H167Q154 570 142 568T120 561T104 546T98 520Q98 476 138 476Z"  />
<glyph unicode="&#xAB;" horiz-adv-x="444" d="M292 251L370 58H292L202 251L295 447H371L292 251ZM121 251L199 58H121L31 251L123 447H200L121 251Z"  />
<glyph unicode="&#xAC;" horiz-adv-x="500" d="M24 370H476V120H414V310H24V370Z"  />
<glyph unicode="&#xAD;" horiz-adv-x="333" d="M56 311H276V234H56V311Z"  />
<glyph unicode="&#xAE;" horiz-adv-x="400" d="M192 721Q230 721 263 707T321 667T360 609T375 537Q375 499 361 466T322 408T264 369T192 354Q154 354 121 368T64 407T25 465T10 537Q10 575 24 608T63 667T121 706T192 721ZM192 692Q160 692 132 680T83 646T50 597T38 537Q38 505 50 477T83 428T132 395T192 382Q224 382 252 394T301 428T334 477T347 537Q347 569 335 597T302 647T253 680T192 692ZM192 632Q206 632 221 630T248 622T268 606T276 578Q276 560 267 549T241 532Q258 525 264 515T271 493T273 469T279 444H243Q237 458 237 471T236 494T223 511T184 518H155V444H121V632H192ZM191 546Q207 546 224 551T241 576Q241 586 236 591T224 600T208 603T192 604H155V546H191Z"  />
<glyph unicode="&#xAF;" horiz-adv-x="278" d="M277 664V608H1V664H277Z"  />
<glyph unicode="&#xB0;" horiz-adv-x="400" d="M350 555Q350 524 338 497T306 449T258 417T200 405Q169 405 142 417T94 449T62 496T50 555Q50 586 61 613T93 660T141 693T200 705Q231 705 258 693T305 661T338 613T350 555ZM288 555Q288 573 281 589T262 617T234 636T199 643Q181 643 165 636T137 617T119 589T112 555Q112 518 137 493T200 467Q236 467 262 492T288 555Z"  />
<glyph unicode="&#xB1;" horiz-adv-x="500" d="M217 266H39V326H217V500H283V326H461V266H283V93H217V266ZM39 50H461V-10H39V50Z"  />
<glyph unicode="&#xB2;" horiz-adv-x="293" d="M29 336L135 476Q149 495 157 506T172 532Q187 559 187 593Q187 645 143 645Q102 645 102 587V576H30V590Q30 702 144 702Q200 702 229 674T258 588Q258 547 241 513Q231 493 218 473T187 432L112 340H268V278H29V336Z"  />
<glyph unicode="&#xB3;" horiz-adv-x="293" d="M137 270Q110 270 89 276T53 297T30 338T22 404H91V395Q91 359 102 344T142 329Q171 329 184 345T198 398Q198 434 182 449T127 465H108V528Q116 527 119 527T127 527Q194 527 194 588Q194 643 143 643Q97 643 97 589Q97 586 97 582T98 572H28V592Q28 646 57 674T144 702Q201 702 232 674T264 592Q264 559 251 536T204 496Q237 484 252 462T267 393Q267 333 234 302T137 270Z"  />
<glyph unicode="&#xB4;" horiz-adv-x="278" d="M258 722L127 581H60L149 722H258Z"  />
<glyph unicode="&#xB5;" horiz-adv-x="500" d="M74 -192V505H159V137Q159 102 182 80T242 57Q284 57 310 88T337 171V505H423V65L425 0H340V61H337Q316 26 286 10T225 -6Q208 -6 189 0T159 23V-192H74Z"  />
<glyph unicode="&#xB6;" horiz-adv-x="440" d="M397 659V-176H333V659H281V-176H217V259Q120 265 66 323T11 479Q11 560 54 620T179 702Q201 707 223 709T268 712H450V659H397Z"  />
<glyph unicode="&#xB7;" horiz-adv-x="222" d="M62 243V347H159V243H62Z"  />
<glyph unicode="&#xB8;" horiz-adv-x="278" d="M65 -86L128 0H176L130 -60L132 -62Q138 -60 146 -58T162 -56Q196 -56 220 -75T245 -132Q245 -158 234 -175T207 -204T169 -220T129 -225Q101 -225 76 -218T30 -203L47 -163Q64 -169 79 -173T112 -178Q121 -178 131 -176T150 -170T163 -157T169 -138Q169 -117 155 -107T120 -97Q110 -97 101 -100T82 -105L65 -86Z"  />
<glyph unicode="&#xB9;" horiz-adv-x="293" d="M128 614L66 575V645Q85 653 106 668T138 696H199V278H128V614Z"  />
<glyph unicode="&#xBA;" horiz-adv-x="300" d="M148 417Q118 417 96 423T59 447T37 496T29 578Q29 611 33 640T51 690T87 724T149 737Q181 737 204 730T242 703T264 653T271 575Q271 491 243 454T148 417ZM150 472Q181 472 192 496T204 589Q204 641 192 662T151 683Q139 683 129 680T112 666T101 635T97 581Q97 545 99 523T108 490T125 476T150 472Z"  />
<glyph unicode="&#xBB;" horiz-adv-x="444" d="M322 58H244L322 251L243 447H319L412 251L322 58ZM150 58H73L150 251L72 447H148L241 251L150 58Z"  />
<glyph unicode="&#xBC;" horiz-adv-x="754" d="M82 -30L519 719H581L145 -30H82ZM117 614L55 575V645Q74 653 95 668T127 696H188V278H117V614ZM560 101H423V168L543 418H628V160H678V101H628V0H560V101ZM560 160V326L483 160H560Z"  />
<glyph unicode="&#xBD;" horiz-adv-x="754" d="M81 -30L518 719H580L144 -30H81ZM117 614L55 575V645Q74 653 95 668T127 696H188V278H117V614ZM452 58L558 198Q572 217 580 228T595 254Q610 281 610 315Q610 367 566 367Q525 367 525 309V298H453V312Q453 424 567 424Q623 424 652 396T681 310Q681 269 664 235Q654 215 641 195T610 154L535 62H691V0H452V58Z"  />
<glyph unicode="&#xBE;" horiz-adv-x="754" d="M114 -30L551 719H613L177 -30H114ZM576 101H439V168L559 418H644V160H694V101H644V0H576V101ZM576 160V326L499 160H576ZM137 270Q110 270 89 276T53 297T30 338T22 404H91V395Q91 359 102 344T142 329Q171 329 184 345T198 398Q198 434 182 449T127 465H108V528Q116 527 119 527T127 527Q194 527 194 588Q194 643 143 643Q97 643 97 589Q97 586 97 582T98 572H28V592Q28 646 57 674T144 702Q201 702 232 674T264 592Q264 559 251 536T204 496Q237 484 252 462T267 393Q267 333 234 302T137 270Z"  />
<glyph unicode="&#xBF;" horiz-adv-x="444" d="M266 234Q266 201 247 173T206 113T164 45T145 -41Q145 -58 149 -75T163 -106T186 -130T220 -139Q247 -139 262 -125T284 -89T293 -44T294 0H388Q390 -46 382 -84T353 -149T298 -191T214 -206Q136 -206 94 -161T51 -39Q51 3 61 35T85 94T117 141T149 182T174 218T184 255V348H266V234ZM272 427H178V531H272V427Z"  />
<glyph unicode="&#xC0;" horiz-adv-x="611" d="M493 0L441 172H162L109 0H15L244 722H361L596 0H493ZM300 637L184 250H418L300 637ZM296 939L385 798H318L187 939H296Z"  />
<glyph unicode="&#xC1;" horiz-adv-x="611" d="M493 0L441 172H162L109 0H15L244 722H361L596 0H493ZM300 637L184 250H418L300 637ZM425 939L294 798H227L316 939H425Z"  />
<glyph unicode="&#xC2;" horiz-adv-x="611" d="M493 0L441 172H162L109 0H15L244 722H361L596 0H493ZM300 637L184 250H418L300 637ZM306 892L240 798H160L260 939H352L452 798H372L306 892Z"  />
<glyph unicode="&#xC3;" horiz-adv-x="611" d="M493 0L441 172H162L109 0H15L244 722H361L596 0H493ZM300 637L184 250H418L300 637ZM476 911Q474 890 466 870T445 835Q432 820 414 811T372 802Q355 802 337 808T300 821Q281 829 263 834T228 840Q211 840 198 826T182 795H136Q141 841 165 872T240 903Q260 903 279 898T315 885Q332 877 347 872T374 866Q421 866 425 911H476Z"  />
<glyph unicode="&#xC4;" horiz-adv-x="611" d="M493 0L441 172H162L109 0H15L244 722H361L596 0H493ZM300 637L184 250H418L300 637ZM265 807H171V911H265V807ZM441 807H347V911H441V807Z"  />
<glyph unicode="&#xC5;" horiz-adv-x="611" d="M493 0L441 172H162L109 0H15L244 722H361L596 0H493ZM300 637L184 250H418L300 637ZM305 787Q284 787 266 795T234 816T212 848T204 888Q204 909 212 927T233 959T265 981T305 989Q326 989 344 981T376 959T398 927T406 888Q406 867 398 849T377 817T345 795T305 787ZM365 888Q365 913 347 930T305 948Q280 948 263 931T245 888Q245 864 262 846T305 828Q329 828 347 846T365 888Z"  />
<glyph unicode="&#xC6;" horiz-adv-x="833" d="M15 0L332 722H780V642H483L514 410H772V330H528L563 80H790V0H484L459 172H185L112 0H15ZM393 648H391L222 252H448L393 648Z"  />
<glyph unicode="&#xC7;" horiz-adv-x="556" d="M205 -86L261 -10Q214 -6 182 10T128 53T96 114T79 185T73 263T72 341V441Q72 502 80 555T113 647T183 708T303 730Q401 730 448 684T495 538V517H399V529Q399 557 395 580T378 619T346 643T295 652Q246 652 220 632T181 581T168 511T166 434V281Q166 223 172 183T194 117T232 80T289 68Q407 68 409 219H504V205Q504 -1 308 -10L270 -60L272 -62Q278 -60 286 -58T302 -56Q336 -56 360 -75T385 -132Q385 -158 374 -175T347 -204T309 -220T269 -225Q241 -225 216 -218T170 -203L187 -163Q204 -169 219 -173T252 -178Q261 -178 271 -176T290 -170T303 -157T309 -138Q309 -117 295 -107T260 -97Q250 -97 241 -100T222 -105L205 -86Z"  />
<glyph unicode="&#xC8;" horiz-adv-x="500" d="M81 0V722H453V642H173V410H433V331H173V80H460V0H81ZM240 939L329 798H262L131 939H240Z"  />
<glyph unicode="&#xC9;" horiz-adv-x="500" d="M81 0V722H453V642H173V410H433V331H173V80H460V0H81ZM369 939L238 798H171L260 939H369Z"  />
<glyph unicode="&#xCA;" horiz-adv-x="500" d="M81 0V722H453V642H173V410H433V331H173V80H460V0H81ZM250 892L184 798H104L204 939H296L396 798H316L250 892Z"  />
<glyph unicode="&#xCB;" horiz-adv-x="500" d="M81 0V722H453V642H173V410H433V331H173V80H460V0H81ZM209 807H115V911H209V807ZM385 807H291V911H385V807Z"  />
<glyph unicode="&#xCC;" horiz-adv-x="278" d="M93 0V722H186V0H93ZM129 939L218 798H151L20 939H129Z"  />
<glyph unicode="&#xCD;" horiz-adv-x="278" d="M93 0V722H186V0H93ZM258 939L127 798H60L149 939H258Z"  />
<glyph unicode="&#xCE;" horiz-adv-x="278" d="M93 0V722H186V0H93ZM139 892L73 798H-7L93 939H185L285 798H205L139 892Z"  />
<glyph unicode="&#xCF;" horiz-adv-x="278" d="M93 0V722H186V0H93ZM98 807H4V911H98V807ZM274 807H180V911H274V807Z"  />
<glyph unicode="&#xD0;" horiz-adv-x="611" d="M83 408V722H293Q374 722 421 697T493 623T524 504T531 345Q531 260 522 196T483 88T396 22T244 0H83V333H9V408H83ZM439 372Q439 450 433 502T410 585T361 629T277 642H176V408H323V333H176V80H247Q311 80 349 92T407 138T433 227T439 372Z"  />
<glyph unicode="&#xD1;" horiz-adv-x="667" d="M456 0L169 626V0H86V722H215L499 104V722H581V0H456ZM504 911Q502 890 494 870T473 835Q460 820 442 811T400 802Q383 802 365 808T328 821Q309 829 291 834T256 840Q239 840 226 826T210 795H164Q169 841 193 872T268 903Q288 903 307 898T343 885Q360 877 375 872T402 866Q449 866 453 911H504Z"  />
<glyph unicode="&#xD2;" horiz-adv-x="611" d="M532 343Q532 275 528 212T502 98T433 18T299 -12Q231 -12 188 10T121 72T87 163T78 274V438Q78 498 84 553T114 649T182 715T304 740Q383 740 429 713T497 641T526 536T532 413V343ZM438 424Q438 462 437 504T424 581T385 638T304 661Q235 661 204 620T172 484V270Q172 214 179 175T201 112T242 77T303 66Q352 66 379 82T419 129T435 206T438 314V424ZM296 939L385 798H318L187 939H296Z"  />
<glyph unicode="&#xD3;" horiz-adv-x="611" d="M532 343Q532 275 528 212T502 98T433 18T299 -12Q231 -12 188 10T121 72T87 163T78 274V438Q78 498 84 553T114 649T182 715T304 740Q383 740 429 713T497 641T526 536T532 413V343ZM438 424Q438 462 437 504T424 581T385 638T304 661Q235 661 204 620T172 484V270Q172 214 179 175T201 112T242 77T303 66Q352 66 379 82T419 129T435 206T438 314V424ZM425 939L294 798H227L316 939H425Z"  />
<glyph unicode="&#xD4;" horiz-adv-x="611" d="M532 343Q532 275 528 212T502 98T433 18T299 -12Q231 -12 188 10T121 72T87 163T78 274V438Q78 498 84 553T114 649T182 715T304 740Q383 740 429 713T497 641T526 536T532 413V343ZM438 424Q438 462 437 504T424 581T385 638T304 661Q235 661 204 620T172 484V270Q172 214 179 175T201 112T242 77T303 66Q352 66 379 82T419 129T435 206T438 314V424ZM306 892L240 798H160L260 939H352L452 798H372L306 892Z"  />
<glyph unicode="&#xD5;" horiz-adv-x="611" d="M532 343Q532 275 528 212T502 98T433 18T299 -12Q231 -12 188 10T121 72T87 163T78 274V438Q78 498 84 553T114 649T182 715T304 740Q383 740 429 713T497 641T526 536T532 413V343ZM438 424Q438 462 437 504T424 581T385 638T304 661Q235 661 204 620T172 484V270Q172 214 179 175T201 112T242 77T303 66Q352 66 379 82T419 129T435 206T438 314V424ZM476 911Q474 890 466 870T445 835Q432 820 414 811T372 802Q355 802 337 808T300 821Q281 829 263 834T228 840Q211 840 198 826T182 795H136Q141 841 165 872T240 903Q260 903 279 898T315 885Q332 877 347 872T374 866Q421 866 425 911H476Z"  />
<glyph unicode="&#xD6;" horiz-adv-x="611" d="M532 343Q532 275 528 212T502 98T433 18T299 -12Q231 -12 188 10T121 72T87 163T78 274V438Q78 498 84 553T114 649T182 715T304 740Q383 740 429 713T497 641T526 536T532 413V343ZM438 424Q438 462 437 504T424 581T385 638T304 661Q235 661 204 620T172 484V270Q172 214 179 175T201 112T242 77T303 66Q352 66 379 82T419 129T435 206T438 314V424ZM265 807H171V911H265V807ZM441 807H347V911H441V807Z"  />
<glyph unicode="&#xD7;" horiz-adv-x="500" d="M90 43L40 93L199 253L40 412L90 462L249 303L409 462L459 412L300 253L459 93L409 43L249 202L90 43Z"  />
<glyph unicode="&#xD8;" horiz-adv-x="611" d="M101 109Q88 144 83 186T78 274V438Q78 498 84 553T114 649T182 715T304 740Q366 740 406 724T472 678L518 748L573 715L508 615Q524 572 528 521T532 413V343Q532 275 528 212T502 98T433 18T299 -12Q242 -12 203 3T138 48L80 -41L25 -8L101 109ZM172 270Q172 256 172 244T173 219L418 595Q405 624 379 642T304 661Q235 661 204 620T172 484V270ZM438 424Q438 444 438 464T437 506L192 130Q206 96 233 81T303 66Q352 66 379 82T419 129T435 206T438 314V424Z"  />
<glyph unicode="&#xD9;" horiz-adv-x="611" d="M529 241Q529 185 518 139T481 58T412 5T305 -14Q193 -14 138 48T82 219V722H174V221Q174 144 207 105T306 65Q346 65 372 78T413 113T433 167T439 234V722H529V241H529ZM296 939L385 798H318L187 939H296Z"  />
<glyph unicode="&#xDA;" horiz-adv-x="611" d="M529 241Q529 185 518 139T481 58T412 5T305 -14Q193 -14 138 48T82 219V722H174V221Q174 144 207 105T306 65Q346 65 372 78T413 113T433 167T439 234V722H529V241H529ZM425 939L294 798H227L316 939H425Z"  />
<glyph unicode="&#xDB;" horiz-adv-x="611" d="M529 241Q529 185 518 139T481 58T412 5T305 -14Q193 -14 138 48T82 219V722H174V221Q174 144 207 105T306 65Q346 65 372 78T413 113T433 167T439 234V722H529V241H529ZM306 892L240 798H160L260 939H352L452 798H372L306 892Z"  />
<glyph unicode="&#xDC;" horiz-adv-x="611" d="M529 241Q529 185 518 139T481 58T412 5T305 -14Q193 -14 138 48T82 219V722H174V221Q174 144 207 105T306 65Q346 65 372 78T413 113T433 167T439 234V722H529V241H529ZM265 807H171V911H265V807ZM441 807H347V911H441V807Z"  />
<glyph unicode="&#xDD;" horiz-adv-x="500" d="M294 290V0H203V292L8 722H111L253 373L398 722H492L294 290ZM369 939L238 798H171L260 939H369Z"  />
<glyph unicode="&#xDE;" horiz-adv-x="556" d="M93 722H185V600H307Q343 600 379 592T443 561T490 498T508 394Q508 332 487 294T435 234T369 204T306 196H185V0H93V722ZM185 276H286Q300 276 322 279T364 295T399 332T414 399Q414 440 401 464T371 500T336 516T312 520H185V276Z"  />
<glyph unicode="&#xDF;" horiz-adv-x="556" d="M501 155Q501 136 497 108T478 53T432 8T347 -11Q280 -11 239 19T198 125H284Q282 94 298 75T346 56Q367 56 380 64T401 85T412 114T415 148Q415 177 403 198T373 236T333 268T293 300T262 341T250 397Q250 421 266 443T302 487Q321 509 337 531T353 578Q353 624 328 647T260 670Q220 670 199 658T167 628T154 588T152 546V0H70V579Q70 627 91 657T143 705T205 730T258 737Q295 737 329 730T388 705T429 659T445 586Q445 549 429 525T392 480Q382 470 372 461T354 443T341 424T336 402Q336 384 348 370T378 340T418 309T458 271T489 222T501 155Z"  />
<glyph unicode="&#xE0;" horiz-adv-x="500" d="M338 0L334 73H332Q313 29 282 9T203 -11Q137 -11 102 29T66 145Q66 190 79 221T119 273T190 303T294 313H331V345Q331 360 330 379T321 414T296 442T248 454Q210 454 188 434T166 376Q166 374 166 371T167 363H78Q80 441 121 478T249 516Q327 516 370 481T413 363V102Q413 79 415 51T423 0H338ZM332 218Q332 223 332 230T331 251Q320 252 316 252T306 252Q277 252 249 250T199 237T163 206T149 149Q149 105 170 81T230 57Q262 57 282 73T313 113T328 165T332 218ZM262 579L131 720H240L329 579H262Z"  />
<glyph unicode="&#xE1;" horiz-adv-x="500" d="M338 0L334 73H332Q313 29 282 9T203 -11Q137 -11 102 29T66 145Q66 190 79 221T119 273T190 303T294 313H331V345Q331 360 330 379T321 414T296 442T248 454Q210 454 188 434T166 376Q166 374 166 371T167 363H78Q80 441 121 478T249 516Q327 516 370 481T413 363V102Q413 79 415 51T423 0H338ZM332 218Q332 223 332 230T331 251Q320 252 316 252T306 252Q277 252 249 250T199 237T163 206T149 149Q149 105 170 81T230 57Q262 57 282 73T313 113T328 165T332 218ZM369 722L238 581H171L260 722H369Z"  />
<glyph unicode="&#xE2;" horiz-adv-x="500" d="M338 0L334 73H332Q313 29 282 9T203 -11Q137 -11 102 29T66 145Q66 190 79 221T119 273T190 303T294 313H331V345Q331 360 330 379T321 414T296 442T248 454Q210 454 188 434T166 376Q166 374 166 371T167 363H78Q80 441 121 478T249 516Q327 516 370 481T413 363V102Q413 79 415 51T423 0H338ZM332 218Q332 223 332 230T331 251Q320 252 316 252T306 252Q277 252 249 250T199 237T163 206T149 149Q149 105 170 81T230 57Q262 57 282 73T313 113T328 165T332 218ZM250 675L184 581H104L204 722H296L396 581H316L250 675Z"  />
<glyph unicode="&#xE3;" horiz-adv-x="500" d="M338 0L334 73H332Q313 29 282 9T203 -11Q137 -11 102 29T66 145Q66 190 79 221T119 273T190 303T294 313H331V345Q331 360 330 379T321 414T296 442T248 454Q210 454 188 434T166 376Q166 374 166 371T167 363H78Q80 441 121 478T249 516Q327 516 370 481T413 363V102Q413 79 415 51T423 0H338ZM332 218Q332 223 332 230T331 251Q320 252 316 252T306 252Q277 252 249 250T199 237T163 206T149 149Q149 105 170 81T230 57Q262 57 282 73T313 113T328 165T332 218ZM420 694Q418 673 410 653T389 618Q376 603 358 594T316 585Q299 585 281 591T244 604Q225 612 207 617T172 623Q155 623 142 609T126 578H80Q85 624 109 655T184 686Q204 686 223 681T259 668Q276 660 291 655T318 649Q365 649 369 694H420Z"  />
<glyph unicode="&#xE4;" horiz-adv-x="500" d="M338 0L334 73H332Q313 29 282 9T203 -11Q137 -11 102 29T66 145Q66 190 79 221T119 273T190 303T294 313H331V345Q331 360 330 379T321 414T296 442T248 454Q210 454 188 434T166 376Q166 374 166 371T167 363H78Q80 441 121 478T249 516Q327 516 370 481T413 363V102Q413 79 415 51T423 0H338ZM332 218Q332 223 332 230T331 251Q320 252 316 252T306 252Q277 252 249 250T199 237T163 206T149 149Q149 105 170 81T230 57Q262 57 282 73T313 113T328 165T332 218ZM209 590H115V694H209V590ZM385 590H291V694H385V590Z"  />
<glyph unicode="&#xE5;" horiz-adv-x="500" d="M338 0L334 73H332Q313 29 282 9T203 -11Q137 -11 102 29T66 145Q66 190 79 221T119 273T190 303T294 313H331V345Q331 360 330 379T321 414T296 442T248 454Q210 454 188 434T166 376Q166 374 166 371T167 363H78Q80 441 121 478T249 516Q327 516 370 481T413 363V102Q413 79 415 51T423 0H338ZM332 218Q332 223 332 230T331 251Q320 252 316 252T306 252Q277 252 249 250T199 237T163 206T149 149Q149 105 170 81T230 57Q262 57 282 73T313 113T328 165T332 218ZM250 570Q229 570 211 578T179 599T157 631T149 671Q149 692 157 710T178 742T210 764T250 772Q271 772 289 764T321 742T343 710T351 671Q351 650 343 632T322 600T290 578T250 570ZM310 671Q310 696 292 713T250 731Q225 731 208 714T190 671Q190 647 207 629T250 611Q274 611 292 629T310 671Z"  />
<glyph unicode="&#xE6;" horiz-adv-x="778" d="M428 240Q429 213 430 182T439 122T467 76T525 57Q576 57 596 86T619 162H708Q708 135 703 105T678 49T621 7T520 -10Q497 -10 474 -5T432 12T397 40T375 81Q353 31 310 11T216 -10Q144 -10 106 29T67 141Q67 204 92 236T158 281T246 297T341 302V353Q341 403 320 428T247 453Q205 453 185 428T168 363H79Q82 448 125 481T250 515Q272 515 294 513T336 503T371 481T394 442H396Q402 462 415 476T446 498T484 511T524 515Q554 515 589 509T653 477T700 395T711 240H428ZM341 240Q312 240 280 240T220 231T176 202T158 141Q158 104 176 81T237 57Q256 57 275 63T310 88T335 143T341 240ZM624 302Q625 328 622 355T608 403T577 439T524 453Q512 453 496 449T464 429T439 383T428 302H624Z"  />
<glyph unicode="&#xE7;" horiz-adv-x="500" d="M171 -86L227 -9Q176 -4 146 19T100 78T79 158T74 248Q74 322 83 373T115 455T174 501T264 515Q341 515 381 475T422 357V343H337Q337 398 318 423T257 448Q225 448 206 433T177 391T163 328T159 252Q159 152 181 106T253 59Q277 59 294 68T321 92T335 127T340 168H426Q426 95 388 47T275 -9L236 -60L238 -62Q244 -60 252 -58T268 -56Q302 -56 326 -75T351 -132Q351 -158 340 -175T313 -204T275 -220T235 -225Q207 -225 182 -218T136 -203L153 -163Q170 -169 185 -173T218 -178Q227 -178 237 -176T256 -170T269 -157T275 -138Q275 -117 261 -107T226 -97Q216 -97 207 -100T188 -105L171 -86Z"  />
<glyph unicode="&#xE8;" horiz-adv-x="500" d="M152 226Q152 200 153 171T164 115T193 72T249 55Q331 55 342 153H432Q428 -12 251 -12Q184 -12 147 10T91 69T68 156T63 261Q63 330 73 379T106 458T164 503T250 518Q310 518 346 500T403 450T430 373T437 277V226H152ZM349 300Q349 326 346 353T333 403T302 439T249 453Q215 453 196 437T167 395T155 342T152 288H349V300ZM262 579L131 720H240L329 579H262Z"  />
<glyph unicode="&#xE9;" horiz-adv-x="500" d="M152 226Q152 200 153 171T164 115T193 72T249 55Q331 55 342 153H432Q428 -12 251 -12Q184 -12 147 10T91 69T68 156T63 261Q63 330 73 379T106 458T164 503T250 518Q310 518 346 500T403 450T430 373T437 277V226H152ZM349 300Q349 326 346 353T333 403T302 439T249 453Q215 453 196 437T167 395T155 342T152 288H349V300ZM369 722L238 581H171L260 722H369Z"  />
<glyph unicode="&#xEA;" horiz-adv-x="500" d="M152 226Q152 200 153 171T164 115T193 72T249 55Q331 55 342 153H432Q428 -12 251 -12Q184 -12 147 10T91 69T68 156T63 261Q63 330 73 379T106 458T164 503T250 518Q310 518 346 500T403 450T430 373T437 277V226H152ZM349 300Q349 326 346 353T333 403T302 439T249 453Q215 453 196 437T167 395T155 342T152 288H349V300ZM250 675L184 581H104L204 722H296L396 581H316L250 675Z"  />
<glyph unicode="&#xEB;" horiz-adv-x="500" d="M152 226Q152 200 153 171T164 115T193 72T249 55Q331 55 342 153H432Q428 -12 251 -12Q184 -12 147 10T91 69T68 156T63 261Q63 330 73 379T106 458T164 503T250 518Q310 518 346 500T403 450T430 373T437 277V226H152ZM349 300Q349 326 346 353T333 403T302 439T249 453Q215 453 196 437T167 395T155 342T152 288H349V300ZM209 590H115V694H209V590ZM385 590H291V694H385V590Z"  />
<glyph unicode="&#xEC;" horiz-adv-x="222" d="M70 0V505H152V0H70ZM124 579L-7 720H102L191 579H124Z"  />
<glyph unicode="&#xED;" horiz-adv-x="222" d="M70 0V505H152V0H70ZM231 722L100 581H33L122 722H231Z"  />
<glyph unicode="&#xEE;" horiz-adv-x="222" d="M70 0V505H152V0H70ZM112 675L46 581H-34L66 722H158L258 581H178L112 675Z"  />
<glyph unicode="&#xEF;" horiz-adv-x="222" d="M70 0V505H152V0H70ZM71 590H-23V694H71V590ZM247 590H153V694H247V590Z"  />
<glyph unicode="&#xF0;" horiz-adv-x="500" d="M109 600L192 649Q169 669 148 682T108 706L163 753Q213 728 260 689L353 744L383 711L292 658Q329 621 357 582T404 493T432 383T442 240Q442 158 427 109T386 33T325 -1T250 -10Q210 -10 175 -2T114 33T73 108T58 240Q58 294 63 342T86 427T141 484T238 505Q270 505 289 496T327 468L329 470Q318 503 296 538T228 621L140 570L109 600ZM250 56Q282 56 302 67T335 105T351 172T356 274Q356 325 349 357T327 407T294 432T250 439Q226 439 207 433T173 408T152 357T144 274Q144 214 148 173T165 105T197 68T250 56Z"  />
<glyph unicode="&#xF1;" horiz-adv-x="500" d="M344 0V335Q344 357 342 377T330 414T305 439T261 449Q233 449 214 439T182 412T164 372T158 324V0H72V440L70 505H157V440Q180 480 211 497T292 515Q335 515 362 503T404 468T424 415T430 348V0H344ZM420 694Q418 673 410 653T389 618Q376 603 358 594T316 585Q299 585 281 591T244 604Q225 612 207 617T172 623Q155 623 142 609T126 578H80Q85 624 109 655T184 686Q204 686 223 681T259 668Q276 660 291 655T318 649Q365 649 369 694H420Z"  />
<glyph unicode="&#xF2;" horiz-adv-x="500" d="M442 248Q442 192 436 145T408 62T348 6T245 -14Q180 -14 143 7T86 66T62 152T57 255Q57 310 63 358T88 442T146 498T249 519Q315 519 353 498T411 441T436 355T442 248ZM354 272Q354 300 352 332T341 390T310 433T252 451Q212 451 191 432T159 384T148 322T146 258Q146 220 147 184T158 119T189 73T249 55Q289 55 310 74T341 124T352 194T354 272ZM262 579L131 720H240L329 579H262Z"  />
<glyph unicode="&#xF3;" horiz-adv-x="500" d="M442 248Q442 192 436 145T408 62T348 6T245 -14Q180 -14 143 7T86 66T62 152T57 255Q57 310 63 358T88 442T146 498T249 519Q315 519 353 498T411 441T436 355T442 248ZM354 272Q354 300 352 332T341 390T310 433T252 451Q212 451 191 432T159 384T148 322T146 258Q146 220 147 184T158 119T189 73T249 55Q289 55 310 74T341 124T352 194T354 272ZM369 722L238 581H171L260 722H369Z"  />
<glyph unicode="&#xF4;" horiz-adv-x="500" d="M442 248Q442 192 436 145T408 62T348 6T245 -14Q180 -14 143 7T86 66T62 152T57 255Q57 310 63 358T88 442T146 498T249 519Q315 519 353 498T411 441T436 355T442 248ZM354 272Q354 300 352 332T341 390T310 433T252 451Q212 451 191 432T159 384T148 322T146 258Q146 220 147 184T158 119T189 73T249 55Q289 55 310 74T341 124T352 194T354 272ZM250 675L184 581H104L204 722H296L396 581H316L250 675Z"  />
<glyph unicode="&#xF5;" horiz-adv-x="500" d="M442 248Q442 192 436 145T408 62T348 6T245 -14Q180 -14 143 7T86 66T62 152T57 255Q57 310 63 358T88 442T146 498T249 519Q315 519 353 498T411 441T436 355T442 248ZM354 272Q354 300 352 332T341 390T310 433T252 451Q212 451 191 432T159 384T148 322T146 258Q146 220 147 184T158 119T189 73T249 55Q289 55 310 74T341 124T352 194T354 272ZM420 694Q418 673 410 653T389 618Q376 603 358 594T316 585Q299 585 281 591T244 604Q225 612 207 617T172 623Q155 623 142 609T126 578H80Q85 624 109 655T184 686Q204 686 223 681T259 668Q276 660 291 655T318 649Q365 649 369 694H420Z"  />
<glyph unicode="&#xF6;" horiz-adv-x="500" d="M442 248Q442 192 436 145T408 62T348 6T245 -14Q180 -14 143 7T86 66T62 152T57 255Q57 310 63 358T88 442T146 498T249 519Q315 519 353 498T411 441T436 355T442 248ZM354 272Q354 300 352 332T341 390T310 433T252 451Q212 451 191 432T159 384T148 322T146 258Q146 220 147 184T158 119T189 73T249 55Q289 55 310 74T341 124T352 194T354 272ZM209 590H115V694H209V590ZM385 590H291V694H385V590Z"  />
<glyph unicode="&#xF7;" horiz-adv-x="500" d="M297 18H203V122H297V18ZM297 377H203V481H297V377ZM45 282H457V217H45V282Z"  />
<glyph unicode="&#xF8;" horiz-adv-x="500" d="M23 -10L82 73Q65 109 61 156T57 255Q57 310 63 358T88 442T146 498T249 519Q293 519 323 510T376 483L419 543L466 513L412 438Q432 402 437 354T442 248Q442 192 436 145T408 62T348 6T245 -14Q200 -14 169 -4T116 25L69 -41L23 -10ZM354 272Q354 291 354 311T350 351L168 97Q179 77 198 66T249 55Q289 55 310 74T341 124T352 194T354 272ZM146 258Q146 234 146 211T149 165L327 415Q316 432 298 441T252 451Q212 451 191 432T159 384T148 322T146 258Z"  />
<glyph unicode="&#xF9;" horiz-adv-x="500" d="M340 0V61H337Q295 -8 205 -8Q74 -8 74 132V505H159V137Q159 102 182 80T242 57Q284 57 310 88T337 171V505H423V65L425 0H340ZM262 579L131 720H240L329 579H262Z"  />
<glyph unicode="&#xFA;" horiz-adv-x="500" d="M340 0V61H337Q295 -8 205 -8Q74 -8 74 132V505H159V137Q159 102 182 80T242 57Q284 57 310 88T337 171V505H423V65L425 0H340ZM369 722L238 581H171L260 722H369Z"  />
<glyph unicode="&#xFB;" horiz-adv-x="500" d="M340 0V61H337Q295 -8 205 -8Q74 -8 74 132V505H159V137Q159 102 182 80T242 57Q284 57 310 88T337 171V505H423V65L425 0H340ZM250 675L184 581H104L204 722H296L396 581H316L250 675Z"  />
<glyph unicode="&#xFC;" horiz-adv-x="500" d="M340 0V61H337Q295 -8 205 -8Q74 -8 74 132V505H159V137Q159 102 182 80T242 57Q284 57 310 88T337 171V505H423V65L425 0H340ZM209 590H115V694H209V590ZM385 590H291V694H385V590Z"  />
<glyph unicode="&#xFD;" horiz-adv-x="444" d="M206 -192H122L179 -2L7 505H102L225 94L347 505H436L206 -192ZM341 722L210 581H143L232 722H341Z"  />
<glyph unicode="&#xFE;" horiz-adv-x="500" d="M79 722H161V445H163Q184 480 211 497T275 515Q336 515 370 491T420 427T439 340T442 244Q442 161 428 111T391 34T339 -1T279 -10Q240 -10 213 5T164 51H161V-191H79V722ZM161 273Q161 244 161 207T169 136T196 80T253 57Q292 57 312 75T343 121T354 181T356 243Q356 294 353 332T339 396T309 435T256 448Q222 448 203 430T175 386T163 329T161 273Z"  />
<glyph unicode="&#xFF;" horiz-adv-x="444" d="M206 -192H122L179 -2L7 505H102L225 94L347 505H436L206 -192ZM181 590H87V694H181V590ZM357 590H263V694H357V590Z"  />
<glyph unicode="&#x131;" horiz-adv-x="222" d="M70 0V505H152V0H70Z"  />
<glyph unicode="&#x152;" horiz-adv-x="833" d="M793 642H513V410H773V330H513V80H799V0H322Q257 0 210 14T132 61T87 145T72 269V437Q72 516 86 570T129 658T199 707T295 722H793V642ZM421 642H289Q259 642 236 634T198 602T174 539T166 433V273Q166 230 171 195T191 134T231 94T297 80H421V642Z"  />
<glyph unicode="&#x153;" horiz-adv-x="778" d="M439 226Q439 173 446 140T466 89T498 64T541 57Q562 57 578 65T605 86T622 116T629 153H719Q718 68 671 29T543 -10Q519 -10 496 -7T452 5T415 29T390 70Q365 23 330 7T250 -10Q210 -10 175 -2T114 34T73 111T58 245Q58 300 63 349T88 435T146 493T250 515Q272 515 296 511T340 498T375 472T394 431H396Q413 476 449 495T543 515Q597 515 632 500T687 455T715 378T723 269V226H439ZM250 57Q282 57 302 69T335 107T351 175T356 280Q356 332 349 364T327 415T294 441T250 448Q226 448 207 441T173 416T152 365T144 280Q144 218 148 176T165 107T197 69T250 57ZM636 288Q636 343 629 375T608 423T576 443T535 448Q515 448 498 443T468 421T447 372T439 288H636Z"  />
<glyph unicode="&#x160;" horiz-adv-x="556" d="M496 183Q496 138 481 103T436 42T365 3T273 -11Q169 -11 115 40T60 190V221H151V201Q151 139 184 104T275 68Q332 68 367 99T402 183Q402 221 379 249T323 294L221 348Q145 388 111 434T77 543Q77 633 135 684T293 735Q390 735 440 686T490 540V524H394V537Q394 592 368 623T285 655Q231 655 201 628T171 551Q171 523 183 501T215 462T258 432T305 409Q345 391 372 373T407 348Q456 309 476 273T496 183ZM424 939L324 798H232L132 939H212L278 845L344 939H424Z"  />
<glyph unicode="&#x161;" horiz-adv-x="444" d="M397 135Q397 66 351 29T220 -9Q135 -9 91 30T47 144V153H135V144Q135 57 220 57Q264 57 288 76T312 129Q312 170 269 192L142 258Q98 281 79 309T59 375Q59 412 73 438T112 481T166 504T230 512Q307 512 349 478T391 378V368H306Q306 370 306 371T307 374Q307 449 222 449Q184 449 163 432T142 384Q142 373 145 364T155 347T176 331T210 313L318 259Q397 220 397 135ZM368 722L268 581H176L76 722H156L222 628L288 722H368Z"  />
<glyph unicode="&#x178;" horiz-adv-x="500" d="M294 290V0H203V292L8 722H111L253 373L398 722H492L294 290ZM209 807H115V911H209V807ZM385 807H291V911H385V807Z"  />
<glyph unicode="&#x17D;" horiz-adv-x="500" d="M25 0V90L362 642H37V722H468V639L120 80H476V0H25ZM396 939L296 798H204L104 939H184L250 845L316 939H396Z"  />
<glyph unicode="&#x17E;" horiz-adv-x="389" d="M36 0V71L250 440H46V505H347V439L130 65H354V0H36ZM341 722L241 581H149L49 722H129L195 628L261 722H341Z"  />
<glyph unicode="&#x192;" horiz-adv-x="444" d="M397 637Q392 638 386 638T373 639Q327 639 308 600Q297 578 289 540T276 454H373L365 394H266L219 62Q211 10 206 -21T195 -72T183 -103T168 -127Q153 -147 125 -158T58 -170Q52 -170 46 -170T31 -169L43 -97Q48 -98 50 -98T56 -98Q74 -98 86 -92T106 -69T120 -23T134 53L185 394H95L104 454H196L199 477Q202 497 206 520T215 565T227 608T239 640Q255 672 287 690T363 708Q387 708 406 704L397 637Z"  />
<glyph unicode="&#x2C6;" horiz-adv-x="278" d="M139 675L73 581H-7L93 722H185L285 581H205L139 675Z"  />
<glyph unicode="&#x2C7;" horiz-adv-x="278" d="M285 722L185 581H93L-7 722H73L139 628L205 722H285Z"  />
<glyph unicode="&#x2DA;" horiz-adv-x="278" d="M139 570Q118 570 100 578T68 599T46 631T38 671Q38 692 46 710T67 742T99 764T139 772Q160 772 178 764T210 742T232 710T240 671Q240 650 232 632T211 600T179 578T139 570ZM199 671Q199 696 181 713T139 731Q114 731 97 714T79 671Q79 647 96 629T139 611Q163 611 181 629T199 671Z"  />
<glyph unicode="&#x2DC;" horiz-adv-x="278" d="M309 694Q307 673 299 653T278 618Q265 603 247 594T205 585Q188 585 170 591T133 604Q114 612 96 617T61 623Q44 623 31 609T15 578H-31Q-26 624 -2 655T73 686Q93 686 112 681T148 668Q165 660 180 655T207 649Q254 649 258 694H309Z"  />
<glyph unicode="&#x2013;" horiz-adv-x="500" d="M0 243V299H500V243H0Z"  />
<glyph unicode="&#x2014;" horiz-adv-x="1000" d="M0 243V299H1000V243H0Z"  />
<glyph unicode="&#x2018;" horiz-adv-x="222" d="M144 525H36L118 726H186L144 525Z"  />
<glyph unicode="&#x2019;" horiz-adv-x="222" d="M104 525H36L79 726H187L104 525Z"  />
<glyph unicode="&#x201A;" horiz-adv-x="222" d="M104 -112H36L79 88H187L104 -112Z"  />
<glyph unicode="&#x201C;" horiz-adv-x="444" d="M338 524H231L313 725H381L338 524ZM171 524H63L145 725H213L171 524Z"  />
<glyph unicode="&#x201D;" horiz-adv-x="444" d="M299 525H231L274 726H381L299 525ZM131 525H63L106 726H214L131 525Z"  />
<glyph unicode="&#x201E;" horiz-adv-x="444" d="M299 -112H231L274 88H381L299 -112ZM131 -112H63L106 88H214L131 -112Z"  />
<glyph unicode="&#x2020;" horiz-adv-x="444" d="M262 499V0H183V499H41V571H183V722H262V571H404V499H262Z"  />
<glyph unicode="&#x2021;" horiz-adv-x="444" d="M262 152V0H182V152H42V221H182V501H42V571H182V722H262V571H403V501H262V221H403V152H262Z"  />
<glyph unicode="&#x2022;" horiz-adv-x="333" d="M166 534Q203 534 235 520T292 482T330 426T344 356Q344 319 330 287T292 230T236 192T166 178Q129 178 97 192T40 230T2 286T-12 356Q-12 393 2 425T40 482T96 520T166 534Z"  />
<glyph unicode="&#x2026;" horiz-adv-x="1000" d="M214 0H120V104H214V0ZM880 0H786V104H880V0ZM547 0H453V104H547V0Z"  />
<glyph unicode="&#x2030;" horiz-adv-x="889" d="M867 173Q867 139 865 106T850 47T814 4T745 -12Q708 -12 686 1T653 38T639 94T635 164Q635 260 662 300T754 340Q794 340 816 326T850 289T864 236T867 173ZM255 541Q255 507 253 474T238 415T202 372T133 356Q96 356 74 369T41 406T27 462T23 532Q23 628 50 668T142 708Q182 708 204 694T238 657T252 604T255 541ZM173 -14H112L423 708H485L173 -14ZM576 173Q576 139 574 106T559 47T523 4T454 -12Q417 -12 395 1T362 38T348 94T344 164Q344 260 371 300T463 340Q503 340 525 326T559 289T573 236T576 173ZM802 173Q802 183 802 196T802 223T799 249T791 271Q779 291 754 291Q724 291 713 266Q710 259 708 251T704 232T702 204T701 165Q701 121 704 90Q709 40 750 40Q762 40 773 46T789 64Q793 71 795 79T799 100T801 130T802 173ZM190 541Q190 551 190 564T190 591T187 617T179 639Q167 659 142 659Q112 659 101 634Q98 627 96 619T92 600T90 572T89 533Q89 489 92 458Q97 408 138 408Q150 408 161 414T177 432Q181 439 183 447T187 468T189 498T190 541ZM511 173Q511 183 511 196T511 223T508 249T500 271Q488 291 463 291Q433 291 422 266Q419 259 417 251T413 232T411 204T410 165Q410 121 413 90Q418 40 459 40Q471 40 482 46T498 64Q502 71 504 79T508 100T510 130T511 173Z"  />
<glyph unicode="&#x2039;" horiz-adv-x="222" d="M113 251L191 58H113L23 251L116 447H192L113 251Z"  />
<glyph unicode="&#x203A;" horiz-adv-x="222" d="M108 58H30L108 251L29 447H105L198 251L108 58Z"  />
<glyph unicode="&#x20AC;" horiz-adv-x="444" d="M64 314V380H7L18 447H66V496Q66 602 110 655T248 709Q330 709 376 666T423 529H334Q334 575 314 602T248 629Q200 629 180 597T159 506V447H319L308 380H158V314H296L285 247H159V188Q159 125 180 93T253 61Q298 61 317 84T337 162H424Q424 -14 248 -14Q154 -14 110 36T65 187V247H7L18 314H64Z"  />
<glyph unicode="&#x2122;" horiz-adv-x="825" d="M144 680H22V722H315V680H193V366H144V680ZM379 722H452L559 439L667 722H737V366H693V675L578 366H538L422 675V366H379V722Z"  />

</font>
</defs>
</svg>
